<?xml version="1.0" encoding="utf-8" standalone="no"?>
<!DOCTYPE svg PUBLIC "-//W3C//DTD SVG 1.1//EN"
  "http://www.w3.org/Graphics/SVG/1.1/DTD/svg11.dtd">
<svg xmlns:xlink="http://www.w3.org/1999/xlink" width="396.990397pt" height="248.518125pt" viewBox="0 0 396.990397 248.518125" xmlns="http://www.w3.org/2000/svg" version="1.1">
 <metadata>
  <rdf:RDF xmlns:dc="http://purl.org/dc/elements/1.1/" xmlns:cc="http://creativecommons.org/ns#" xmlns:rdf="http://www.w3.org/1999/02/22-rdf-syntax-ns#">
   <cc:Work>
    <dc:type rdf:resource="http://purl.org/dc/dcmitype/StillImage"/>
    <dc:date>2022-06-10T11:29:16.279466</dc:date>
    <dc:format>image/svg+xml</dc:format>
    <dc:creator>
     <cc:Agent>
      <dc:title>Matplotlib v3.5.2, https://matplotlib.org/</dc:title>
     </cc:Agent>
    </dc:creator>
   </cc:Work>
  </rdf:RDF>
 </metadata>
 <defs>
  <style type="text/css">*{stroke-linejoin: round; stroke-linecap: butt}</style>
 </defs>
 <g id="figure_1">
  <g id="patch_1">
   <path d="M 0 248.518125 
L 396.990397 248.518125 
L 396.990397 0 
L 0 0 
L 0 248.518125 
z
" style="fill: none"/>
  </g>
  <g id="axes_1">
   <g id="patch_2">
    <path d="M 33.2875 224.64 
L 368.0875 224.64 
L 368.0875 7.2 
L 33.2875 7.2 
z
" style="fill: #ffffff"/>
   </g>
   <g id="matplotlib.axis_1">
    <g id="xtick_1">
     <g id="line2d_1">
      <defs>
       <path id="m6c39d34f7d" d="M 0 0 
L 0 3.5 
" style="stroke: #000000; stroke-width: 0.8"/>
      </defs>
      <g>
       <use xlink:href="#m6c39d34f7d" x="47.394866" y="224.64" style="stroke: #000000; stroke-width: 0.8"/>
      </g>
     </g>
     <g id="text_1">
      <!-- 05-18 00 -->
      <g transform="translate(24.914397 239.238438)scale(0.1 -0.1)">
       <defs>
        <path id="DejaVuSans-30" d="M 2034 4250 
Q 1547 4250 1301 3770 
Q 1056 3291 1056 2328 
Q 1056 1369 1301 889 
Q 1547 409 2034 409 
Q 2525 409 2770 889 
Q 3016 1369 3016 2328 
Q 3016 3291 2770 3770 
Q 2525 4250 2034 4250 
z
M 2034 4750 
Q 2819 4750 3233 4129 
Q 3647 3509 3647 2328 
Q 3647 1150 3233 529 
Q 2819 -91 2034 -91 
Q 1250 -91 836 529 
Q 422 1150 422 2328 
Q 422 3509 836 4129 
Q 1250 4750 2034 4750 
z
" transform="scale(0.015625)"/>
        <path id="DejaVuSans-35" d="M 691 4666 
L 3169 4666 
L 3169 4134 
L 1269 4134 
L 1269 2991 
Q 1406 3038 1543 3061 
Q 1681 3084 1819 3084 
Q 2600 3084 3056 2656 
Q 3513 2228 3513 1497 
Q 3513 744 3044 326 
Q 2575 -91 1722 -91 
Q 1428 -91 1123 -41 
Q 819 9 494 109 
L 494 744 
Q 775 591 1075 516 
Q 1375 441 1709 441 
Q 2250 441 2565 725 
Q 2881 1009 2881 1497 
Q 2881 1984 2565 2268 
Q 2250 2553 1709 2553 
Q 1456 2553 1204 2497 
Q 953 2441 691 2322 
L 691 4666 
z
" transform="scale(0.015625)"/>
        <path id="DejaVuSans-2d" d="M 313 2009 
L 1997 2009 
L 1997 1497 
L 313 1497 
L 313 2009 
z
" transform="scale(0.015625)"/>
        <path id="DejaVuSans-31" d="M 794 531 
L 1825 531 
L 1825 4091 
L 703 3866 
L 703 4441 
L 1819 4666 
L 2450 4666 
L 2450 531 
L 3481 531 
L 3481 0 
L 794 0 
L 794 531 
z
" transform="scale(0.015625)"/>
        <path id="DejaVuSans-38" d="M 2034 2216 
Q 1584 2216 1326 1975 
Q 1069 1734 1069 1313 
Q 1069 891 1326 650 
Q 1584 409 2034 409 
Q 2484 409 2743 651 
Q 3003 894 3003 1313 
Q 3003 1734 2745 1975 
Q 2488 2216 2034 2216 
z
M 1403 2484 
Q 997 2584 770 2862 
Q 544 3141 544 3541 
Q 544 4100 942 4425 
Q 1341 4750 2034 4750 
Q 2731 4750 3128 4425 
Q 3525 4100 3525 3541 
Q 3525 3141 3298 2862 
Q 3072 2584 2669 2484 
Q 3125 2378 3379 2068 
Q 3634 1759 3634 1313 
Q 3634 634 3220 271 
Q 2806 -91 2034 -91 
Q 1263 -91 848 271 
Q 434 634 434 1313 
Q 434 1759 690 2068 
Q 947 2378 1403 2484 
z
M 1172 3481 
Q 1172 3119 1398 2916 
Q 1625 2713 2034 2713 
Q 2441 2713 2670 2916 
Q 2900 3119 2900 3481 
Q 2900 3844 2670 4047 
Q 2441 4250 2034 4250 
Q 1625 4250 1398 4047 
Q 1172 3844 1172 3481 
z
" transform="scale(0.015625)"/>
        <path id="DejaVuSans-20" transform="scale(0.015625)"/>
       </defs>
       <use xlink:href="#DejaVuSans-30"/>
       <use xlink:href="#DejaVuSans-35" x="63.623047"/>
       <use xlink:href="#DejaVuSans-2d" x="127.246094"/>
       <use xlink:href="#DejaVuSans-31" x="163.330078"/>
       <use xlink:href="#DejaVuSans-38" x="226.953125"/>
       <use xlink:href="#DejaVuSans-20" x="290.576172"/>
       <use xlink:href="#DejaVuSans-30" x="322.363281"/>
       <use xlink:href="#DejaVuSans-30" x="385.986328"/>
      </g>
     </g>
    </g>
    <g id="xtick_2">
     <g id="line2d_2">
      <g>
       <use xlink:href="#m6c39d34f7d" x="87.384249" y="224.64" style="stroke: #000000; stroke-width: 0.8"/>
      </g>
     </g>
     <g id="text_2">
      <!-- 05-18 03 -->
      <g transform="translate(64.90378 239.238438)scale(0.1 -0.1)">
       <defs>
        <path id="DejaVuSans-33" d="M 2597 2516 
Q 3050 2419 3304 2112 
Q 3559 1806 3559 1356 
Q 3559 666 3084 287 
Q 2609 -91 1734 -91 
Q 1441 -91 1130 -33 
Q 819 25 488 141 
L 488 750 
Q 750 597 1062 519 
Q 1375 441 1716 441 
Q 2309 441 2620 675 
Q 2931 909 2931 1356 
Q 2931 1769 2642 2001 
Q 2353 2234 1838 2234 
L 1294 2234 
L 1294 2753 
L 1863 2753 
Q 2328 2753 2575 2939 
Q 2822 3125 2822 3475 
Q 2822 3834 2567 4026 
Q 2313 4219 1838 4219 
Q 1578 4219 1281 4162 
Q 984 4106 628 3988 
L 628 4550 
Q 988 4650 1302 4700 
Q 1616 4750 1894 4750 
Q 2613 4750 3031 4423 
Q 3450 4097 3450 3541 
Q 3450 3153 3228 2886 
Q 3006 2619 2597 2516 
z
" transform="scale(0.015625)"/>
       </defs>
       <use xlink:href="#DejaVuSans-30"/>
       <use xlink:href="#DejaVuSans-35" x="63.623047"/>
       <use xlink:href="#DejaVuSans-2d" x="127.246094"/>
       <use xlink:href="#DejaVuSans-31" x="163.330078"/>
       <use xlink:href="#DejaVuSans-38" x="226.953125"/>
       <use xlink:href="#DejaVuSans-20" x="290.576172"/>
       <use xlink:href="#DejaVuSans-30" x="322.363281"/>
       <use xlink:href="#DejaVuSans-33" x="385.986328"/>
      </g>
     </g>
    </g>
    <g id="xtick_3">
     <g id="line2d_3">
      <g>
       <use xlink:href="#m6c39d34f7d" x="127.373631" y="224.64" style="stroke: #000000; stroke-width: 0.8"/>
      </g>
     </g>
     <g id="text_3">
      <!-- 05-18 06 -->
      <g transform="translate(104.893163 239.238438)scale(0.1 -0.1)">
       <defs>
        <path id="DejaVuSans-36" d="M 2113 2584 
Q 1688 2584 1439 2293 
Q 1191 2003 1191 1497 
Q 1191 994 1439 701 
Q 1688 409 2113 409 
Q 2538 409 2786 701 
Q 3034 994 3034 1497 
Q 3034 2003 2786 2293 
Q 2538 2584 2113 2584 
z
M 3366 4563 
L 3366 3988 
Q 3128 4100 2886 4159 
Q 2644 4219 2406 4219 
Q 1781 4219 1451 3797 
Q 1122 3375 1075 2522 
Q 1259 2794 1537 2939 
Q 1816 3084 2150 3084 
Q 2853 3084 3261 2657 
Q 3669 2231 3669 1497 
Q 3669 778 3244 343 
Q 2819 -91 2113 -91 
Q 1303 -91 875 529 
Q 447 1150 447 2328 
Q 447 3434 972 4092 
Q 1497 4750 2381 4750 
Q 2619 4750 2861 4703 
Q 3103 4656 3366 4563 
z
" transform="scale(0.015625)"/>
       </defs>
       <use xlink:href="#DejaVuSans-30"/>
       <use xlink:href="#DejaVuSans-35" x="63.623047"/>
       <use xlink:href="#DejaVuSans-2d" x="127.246094"/>
       <use xlink:href="#DejaVuSans-31" x="163.330078"/>
       <use xlink:href="#DejaVuSans-38" x="226.953125"/>
       <use xlink:href="#DejaVuSans-20" x="290.576172"/>
       <use xlink:href="#DejaVuSans-30" x="322.363281"/>
       <use xlink:href="#DejaVuSans-36" x="385.986328"/>
      </g>
     </g>
    </g>
    <g id="xtick_4">
     <g id="line2d_4">
      <g>
       <use xlink:href="#m6c39d34f7d" x="167.363014" y="224.64" style="stroke: #000000; stroke-width: 0.8"/>
      </g>
     </g>
     <g id="text_4">
      <!-- 05-18 09 -->
      <g transform="translate(144.882546 239.238438)scale(0.1 -0.1)">
       <defs>
        <path id="DejaVuSans-39" d="M 703 97 
L 703 672 
Q 941 559 1184 500 
Q 1428 441 1663 441 
Q 2288 441 2617 861 
Q 2947 1281 2994 2138 
Q 2813 1869 2534 1725 
Q 2256 1581 1919 1581 
Q 1219 1581 811 2004 
Q 403 2428 403 3163 
Q 403 3881 828 4315 
Q 1253 4750 1959 4750 
Q 2769 4750 3195 4129 
Q 3622 3509 3622 2328 
Q 3622 1225 3098 567 
Q 2575 -91 1691 -91 
Q 1453 -91 1209 -44 
Q 966 3 703 97 
z
M 1959 2075 
Q 2384 2075 2632 2365 
Q 2881 2656 2881 3163 
Q 2881 3666 2632 3958 
Q 2384 4250 1959 4250 
Q 1534 4250 1286 3958 
Q 1038 3666 1038 3163 
Q 1038 2656 1286 2365 
Q 1534 2075 1959 2075 
z
" transform="scale(0.015625)"/>
       </defs>
       <use xlink:href="#DejaVuSans-30"/>
       <use xlink:href="#DejaVuSans-35" x="63.623047"/>
       <use xlink:href="#DejaVuSans-2d" x="127.246094"/>
       <use xlink:href="#DejaVuSans-31" x="163.330078"/>
       <use xlink:href="#DejaVuSans-38" x="226.953125"/>
       <use xlink:href="#DejaVuSans-20" x="290.576172"/>
       <use xlink:href="#DejaVuSans-30" x="322.363281"/>
       <use xlink:href="#DejaVuSans-39" x="385.986328"/>
      </g>
     </g>
    </g>
    <g id="xtick_5">
     <g id="line2d_5">
      <g>
       <use xlink:href="#m6c39d34f7d" x="207.352397" y="224.64" style="stroke: #000000; stroke-width: 0.8"/>
      </g>
     </g>
     <g id="text_5">
      <!-- 05-18 12 -->
      <g transform="translate(184.871928 239.238438)scale(0.1 -0.1)">
       <defs>
        <path id="DejaVuSans-32" d="M 1228 531 
L 3431 531 
L 3431 0 
L 469 0 
L 469 531 
Q 828 903 1448 1529 
Q 2069 2156 2228 2338 
Q 2531 2678 2651 2914 
Q 2772 3150 2772 3378 
Q 2772 3750 2511 3984 
Q 2250 4219 1831 4219 
Q 1534 4219 1204 4116 
Q 875 4013 500 3803 
L 500 4441 
Q 881 4594 1212 4672 
Q 1544 4750 1819 4750 
Q 2544 4750 2975 4387 
Q 3406 4025 3406 3419 
Q 3406 3131 3298 2873 
Q 3191 2616 2906 2266 
Q 2828 2175 2409 1742 
Q 1991 1309 1228 531 
z
" transform="scale(0.015625)"/>
       </defs>
       <use xlink:href="#DejaVuSans-30"/>
       <use xlink:href="#DejaVuSans-35" x="63.623047"/>
       <use xlink:href="#DejaVuSans-2d" x="127.246094"/>
       <use xlink:href="#DejaVuSans-31" x="163.330078"/>
       <use xlink:href="#DejaVuSans-38" x="226.953125"/>
       <use xlink:href="#DejaVuSans-20" x="290.576172"/>
       <use xlink:href="#DejaVuSans-31" x="322.363281"/>
       <use xlink:href="#DejaVuSans-32" x="385.986328"/>
      </g>
     </g>
    </g>
    <g id="xtick_6">
     <g id="line2d_6">
      <g>
       <use xlink:href="#m6c39d34f7d" x="247.34178" y="224.64" style="stroke: #000000; stroke-width: 0.8"/>
      </g>
     </g>
     <g id="text_6">
      <!-- 05-18 15 -->
      <g transform="translate(224.861311 239.238438)scale(0.1 -0.1)">
       <use xlink:href="#DejaVuSans-30"/>
       <use xlink:href="#DejaVuSans-35" x="63.623047"/>
       <use xlink:href="#DejaVuSans-2d" x="127.246094"/>
       <use xlink:href="#DejaVuSans-31" x="163.330078"/>
       <use xlink:href="#DejaVuSans-38" x="226.953125"/>
       <use xlink:href="#DejaVuSans-20" x="290.576172"/>
       <use xlink:href="#DejaVuSans-31" x="322.363281"/>
       <use xlink:href="#DejaVuSans-35" x="385.986328"/>
      </g>
     </g>
    </g>
    <g id="xtick_7">
     <g id="line2d_7">
      <g>
       <use xlink:href="#m6c39d34f7d" x="287.331163" y="224.64" style="stroke: #000000; stroke-width: 0.8"/>
      </g>
     </g>
     <g id="text_7">
      <!-- 05-18 18 -->
      <g transform="translate(264.850694 239.238438)scale(0.1 -0.1)">
       <use xlink:href="#DejaVuSans-30"/>
       <use xlink:href="#DejaVuSans-35" x="63.623047"/>
       <use xlink:href="#DejaVuSans-2d" x="127.246094"/>
       <use xlink:href="#DejaVuSans-31" x="163.330078"/>
       <use xlink:href="#DejaVuSans-38" x="226.953125"/>
       <use xlink:href="#DejaVuSans-20" x="290.576172"/>
       <use xlink:href="#DejaVuSans-31" x="322.363281"/>
       <use xlink:href="#DejaVuSans-38" x="385.986328"/>
      </g>
     </g>
    </g>
    <g id="xtick_8">
     <g id="line2d_8">
      <g>
       <use xlink:href="#m6c39d34f7d" x="327.320546" y="224.64" style="stroke: #000000; stroke-width: 0.8"/>
      </g>
     </g>
     <g id="text_8">
      <!-- 05-18 21 -->
      <g transform="translate(304.840077 239.238438)scale(0.1 -0.1)">
       <use xlink:href="#DejaVuSans-30"/>
       <use xlink:href="#DejaVuSans-35" x="63.623047"/>
       <use xlink:href="#DejaVuSans-2d" x="127.246094"/>
       <use xlink:href="#DejaVuSans-31" x="163.330078"/>
       <use xlink:href="#DejaVuSans-38" x="226.953125"/>
       <use xlink:href="#DejaVuSans-20" x="290.576172"/>
       <use xlink:href="#DejaVuSans-32" x="322.363281"/>
       <use xlink:href="#DejaVuSans-31" x="385.986328"/>
      </g>
     </g>
    </g>
    <g id="xtick_9">
     <g id="line2d_9">
      <g>
       <use xlink:href="#m6c39d34f7d" x="367.309929" y="224.64" style="stroke: #000000; stroke-width: 0.8"/>
      </g>
     </g>
     <g id="text_9">
      <!-- 05-19 00 -->
      <g transform="translate(344.82946 239.238438)scale(0.1 -0.1)">
       <use xlink:href="#DejaVuSans-30"/>
       <use xlink:href="#DejaVuSans-35" x="63.623047"/>
       <use xlink:href="#DejaVuSans-2d" x="127.246094"/>
       <use xlink:href="#DejaVuSans-31" x="163.330078"/>
       <use xlink:href="#DejaVuSans-39" x="226.953125"/>
       <use xlink:href="#DejaVuSans-20" x="290.576172"/>
       <use xlink:href="#DejaVuSans-30" x="322.363281"/>
       <use xlink:href="#DejaVuSans-30" x="385.986328"/>
      </g>
     </g>
    </g>
   </g>
   <g id="matplotlib.axis_2">
    <g id="ytick_1">
     <g id="line2d_10">
      <defs>
       <path id="m379eea2cc0" d="M 0 0 
L -3.5 0 
" style="stroke: #000000; stroke-width: 0.8"/>
      </defs>
      <g>
       <use xlink:href="#m379eea2cc0" x="33.2875" y="221.970697" style="stroke: #000000; stroke-width: 0.8"/>
      </g>
     </g>
     <g id="text_10">
      <!-- 40 -->
      <g transform="translate(13.5625 225.769915)scale(0.1 -0.1)">
       <defs>
        <path id="DejaVuSans-34" d="M 2419 4116 
L 825 1625 
L 2419 1625 
L 2419 4116 
z
M 2253 4666 
L 3047 4666 
L 3047 1625 
L 3713 1625 
L 3713 1100 
L 3047 1100 
L 3047 0 
L 2419 0 
L 2419 1100 
L 313 1100 
L 313 1709 
L 2253 4666 
z
" transform="scale(0.015625)"/>
       </defs>
       <use xlink:href="#DejaVuSans-34"/>
       <use xlink:href="#DejaVuSans-30" x="63.623047"/>
      </g>
     </g>
    </g>
    <g id="ytick_2">
     <g id="line2d_11">
      <g>
       <use xlink:href="#m379eea2cc0" x="33.2875" y="193.113364" style="stroke: #000000; stroke-width: 0.8"/>
      </g>
     </g>
     <g id="text_11">
      <!-- 60 -->
      <g transform="translate(13.5625 196.912583)scale(0.1 -0.1)">
       <use xlink:href="#DejaVuSans-36"/>
       <use xlink:href="#DejaVuSans-30" x="63.623047"/>
      </g>
     </g>
    </g>
    <g id="ytick_3">
     <g id="line2d_12">
      <g>
       <use xlink:href="#m379eea2cc0" x="33.2875" y="164.256032" style="stroke: #000000; stroke-width: 0.8"/>
      </g>
     </g>
     <g id="text_12">
      <!-- 80 -->
      <g transform="translate(13.5625 168.055251)scale(0.1 -0.1)">
       <use xlink:href="#DejaVuSans-38"/>
       <use xlink:href="#DejaVuSans-30" x="63.623047"/>
      </g>
     </g>
    </g>
    <g id="ytick_4">
     <g id="line2d_13">
      <g>
       <use xlink:href="#m379eea2cc0" x="33.2875" y="135.398699" style="stroke: #000000; stroke-width: 0.8"/>
      </g>
     </g>
     <g id="text_13">
      <!-- 100 -->
      <g transform="translate(7.2 139.197918)scale(0.1 -0.1)">
       <use xlink:href="#DejaVuSans-31"/>
       <use xlink:href="#DejaVuSans-30" x="63.623047"/>
       <use xlink:href="#DejaVuSans-30" x="127.246094"/>
      </g>
     </g>
    </g>
    <g id="ytick_5">
     <g id="line2d_14">
      <g>
       <use xlink:href="#m379eea2cc0" x="33.2875" y="106.541367" style="stroke: #000000; stroke-width: 0.8"/>
      </g>
     </g>
     <g id="text_14">
      <!-- 120 -->
      <g transform="translate(7.2 110.340586)scale(0.1 -0.1)">
       <use xlink:href="#DejaVuSans-31"/>
       <use xlink:href="#DejaVuSans-32" x="63.623047"/>
       <use xlink:href="#DejaVuSans-30" x="127.246094"/>
      </g>
     </g>
    </g>
    <g id="ytick_6">
     <g id="line2d_15">
      <g>
       <use xlink:href="#m379eea2cc0" x="33.2875" y="77.684035" style="stroke: #000000; stroke-width: 0.8"/>
      </g>
     </g>
     <g id="text_15">
      <!-- 140 -->
      <g transform="translate(7.2 81.483253)scale(0.1 -0.1)">
       <use xlink:href="#DejaVuSans-31"/>
       <use xlink:href="#DejaVuSans-34" x="63.623047"/>
       <use xlink:href="#DejaVuSans-30" x="127.246094"/>
      </g>
     </g>
    </g>
    <g id="ytick_7">
     <g id="line2d_16">
      <g>
       <use xlink:href="#m379eea2cc0" x="33.2875" y="48.826702" style="stroke: #000000; stroke-width: 0.8"/>
      </g>
     </g>
     <g id="text_16">
      <!-- 160 -->
      <g transform="translate(7.2 52.625921)scale(0.1 -0.1)">
       <use xlink:href="#DejaVuSans-31"/>
       <use xlink:href="#DejaVuSans-36" x="63.623047"/>
       <use xlink:href="#DejaVuSans-30" x="127.246094"/>
      </g>
     </g>
    </g>
    <g id="ytick_8">
     <g id="line2d_17">
      <g>
       <use xlink:href="#m379eea2cc0" x="33.2875" y="19.96937" style="stroke: #000000; stroke-width: 0.8"/>
      </g>
     </g>
     <g id="text_17">
      <!-- 180 -->
      <g transform="translate(7.2 23.768588)scale(0.1 -0.1)">
       <use xlink:href="#DejaVuSans-31"/>
       <use xlink:href="#DejaVuSans-38" x="63.623047"/>
       <use xlink:href="#DejaVuSans-30" x="127.246094"/>
      </g>
     </g>
    </g>
   </g>
   <g id="line2d_18">
    <path d="M 48.505682 167.141765 
L 49.616498 135.398699 
L 50.727314 167.141765 
L 51.83813 145.498766 
L 52.948947 170.027498 
L 54.059763 168.584632 
L 55.170579 164.256032 
L 56.281395 165.698898 
L 57.392211 183.013298 
L 58.503028 187.341898 
L 59.613844 187.341898 
L 60.72466 181.570431 
L 61.835476 171.470365 
L 62.946292 177.241831 
L 64.057108 188.784764 
L 65.167925 172.913232 
L 66.278741 175.798965 
L 67.389557 174.356098 
L 68.500373 198.884831 
L 69.611189 171.470365 
L 70.722006 172.913232 
L 71.832822 180.127565 
L 72.943638 185.899031 
L 74.054454 187.341898 
L 75.16527 183.013298 
L 76.276087 185.899031 
L 77.386903 185.899031 
L 78.497719 187.341898 
L 79.608535 181.570431 
L 80.719351 183.013298 
L 81.830168 185.899031 
L 82.940984 198.884831 
L 84.0518 208.984897 
L 85.162616 193.113364 
L 86.273432 187.341898 
L 87.384249 194.556231 
L 88.495065 193.113364 
L 89.605881 204.656297 
L 90.716697 198.884831 
L 91.827513 187.341898 
L 92.938329 200.327697 
L 95.159962 203.213431 
L 96.270778 208.984897 
L 97.381594 203.213431 
L 98.49241 206.099164 
L 99.603227 203.213431 
L 100.714043 198.884831 
L 101.824859 197.441964 
L 102.935675 194.556231 
L 104.046491 185.899031 
L 105.157308 185.899031 
L 106.268124 172.913232 
L 107.37894 204.656297 
L 108.489756 194.556231 
L 109.600572 178.684698 
L 110.711389 190.227631 
L 111.822205 187.341898 
L 112.933021 195.999098 
L 114.043837 184.456165 
L 115.154653 191.670498 
L 116.265469 193.113364 
L 117.376286 197.441964 
L 118.487102 198.884831 
L 119.597918 197.441964 
L 120.708734 200.327697 
L 121.81955 206.099164 
L 122.930367 201.770564 
L 124.041183 191.670498 
L 125.151999 204.656297 
L 126.262815 200.327697 
L 127.373631 201.770564 
L 128.484448 214.756364 
L 129.595264 208.984897 
L 130.70608 206.099164 
L 131.816896 194.556231 
L 132.927712 210.427764 
L 134.038529 200.327697 
L 136.260161 206.099164 
L 137.370977 207.542031 
L 138.481793 204.656297 
L 139.592609 204.656297 
L 140.703426 203.213431 
L 141.814242 203.213431 
L 142.925058 204.656297 
L 144.035874 191.670498 
L 145.14669 201.770564 
L 146.257507 204.656297 
L 147.368323 210.427764 
L 148.479139 204.656297 
L 149.589955 204.656297 
L 150.700771 207.542031 
L 151.811588 194.556231 
L 152.922404 195.999098 
L 154.03322 194.556231 
L 155.144036 191.670498 
L 156.254852 194.556231 
L 157.365669 195.999098 
L 158.476485 198.884831 
L 159.587301 188.784764 
L 160.698117 203.213431 
L 161.808933 208.984897 
L 162.91975 208.984897 
L 164.030566 211.87063 
L 165.141382 207.542031 
L 166.252198 206.099164 
L 167.363014 203.213431 
L 168.47383 193.113364 
L 169.584647 191.670498 
L 170.695463 193.113364 
L 171.806279 146.941632 
L 172.917095 162.813165 
L 174.027911 151.270232 
L 175.138728 82.012634 
L 176.249544 105.0985 
L 177.36036 102.212767 
L 178.471176 133.955833 
L 179.581992 152.713099 
L 180.692809 157.041699 
L 181.803625 159.927432 
L 182.914441 170.027498 
L 184.025257 172.913232 
L 185.136073 159.927432 
L 186.24689 157.041699 
L 187.357706 165.698898 
L 188.468522 185.899031 
L 189.579338 149.827366 
L 190.690154 162.813165 
L 191.80097 170.027498 
L 192.911787 159.927432 
L 194.022603 170.027498 
L 195.133419 175.798965 
L 196.244235 170.027498 
L 197.355051 180.127565 
L 198.465868 171.470365 
L 199.576684 183.013298 
L 201.798316 174.356098 
L 202.909132 175.798965 
L 204.019949 165.698898 
L 205.130765 184.456165 
L 206.241581 172.913232 
L 207.352397 165.698898 
L 208.463213 152.713099 
L 219.571375 152.713099 
L 220.682191 168.584632 
L 221.793008 145.498766 
L 224.01464 133.955833 
L 225.125456 132.512966 
L 226.236272 157.041699 
L 227.347089 139.727299 
L 228.457905 152.713099 
L 229.568721 164.256032 
L 230.679537 154.155965 
L 231.790353 155.598832 
L 232.90117 165.698898 
L 234.011986 168.584632 
L 235.122802 174.356098 
L 236.233618 170.027498 
L 237.344434 148.384499 
L 238.45525 146.941632 
L 239.566067 157.041699 
L 240.676883 158.484565 
L 241.787699 154.155965 
L 242.898515 159.927432 
L 244.009331 164.256032 
L 245.120148 149.827366 
L 246.230964 162.813165 
L 247.34178 158.484565 
L 248.452596 149.827366 
L 249.563412 132.512966 
L 250.674229 175.798965 
L 251.785045 167.141765 
L 252.895861 164.256032 
L 254.006677 172.913232 
L 255.117493 167.141765 
L 256.22831 184.456165 
L 257.339126 170.027498 
L 258.449942 187.341898 
L 259.560758 183.013298 
L 260.671574 188.784764 
L 261.782391 184.456165 
L 262.893207 183.013298 
L 264.004023 154.155965 
L 265.114839 158.484565 
L 266.225655 157.041699 
L 267.336471 162.813165 
L 268.447288 162.813165 
L 269.558104 128.184366 
L 270.66892 113.7557 
L 271.779736 138.284433 
L 272.890552 157.041699 
L 274.001369 133.955833 
L 276.223001 125.298633 
L 277.333817 125.298633 
L 278.444633 100.7699 
L 279.55545 120.970033 
L 280.666266 145.498766 
L 281.777082 145.498766 
L 282.887898 164.256032 
L 285.109531 149.827366 
L 286.220347 146.941632 
L 287.331163 148.384499 
L 288.441979 151.270232 
L 289.552795 165.698898 
L 290.663611 151.270232 
L 291.774428 157.041699 
L 292.885244 157.041699 
L 293.99606 149.827366 
L 295.106876 151.270232 
L 296.217692 167.141765 
L 297.328509 155.598832 
L 298.439325 155.598832 
L 299.550141 161.370299 
L 300.660957 161.370299 
L 301.771773 158.484565 
L 302.88259 177.241831 
L 303.993406 177.241831 
L 305.104222 171.470365 
L 306.215038 154.155965 
L 307.325854 177.241831 
L 308.436671 151.270232 
L 309.547487 158.484565 
L 310.658303 158.484565 
L 311.769119 155.598832 
L 312.879935 157.041699 
L 313.990751 157.041699 
L 315.101568 155.598832 
L 316.212384 165.698898 
L 317.3232 148.384499 
L 318.434016 167.141765 
L 319.544832 168.584632 
L 320.655649 172.913232 
L 321.766465 168.584632 
L 322.877281 170.027498 
L 323.988097 122.4129 
L 325.098913 145.498766 
L 326.20973 102.212767 
L 327.320546 17.083636 
L 328.431362 17.083636 
L 329.542178 80.569768 
L 331.763811 107.984234 
L 332.874627 94.998434 
L 333.985443 133.955833 
L 335.096259 138.284433 
L 336.207075 138.284433 
L 337.317892 149.827366 
L 338.428708 151.270232 
L 339.539524 151.270232 
L 340.65034 148.384499 
L 341.761156 154.155965 
L 342.871972 152.713099 
L 343.982789 152.713099 
L 345.093605 151.270232 
L 346.204421 148.384499 
L 347.315237 152.713099 
L 348.426053 152.713099 
L 349.53687 146.941632 
L 350.647686 154.155965 
L 351.758502 151.270232 
L 352.869318 149.827366 
L 352.869318 149.827366 
" clip-path="url(#p472a3e31f4)" style="fill: none; stroke: #1f77b4; stroke-width: 1.5; stroke-linecap: square"/>
   </g>
   <g id="line2d_19">
    <path d="M 48.505682 157.041699 
L 49.616498 155.598832 
L 50.727314 142.613033 
L 51.83813 174.356098 
L 52.948947 187.341898 
L 54.059763 167.141765 
L 55.170579 194.556231 
L 56.281395 171.470365 
L 57.392211 174.356098 
L 58.503028 171.470365 
L 59.613844 177.241831 
L 60.72466 178.684698 
L 61.835476 181.570431 
L 62.946292 171.470365 
L 64.057108 174.356098 
L 65.167925 167.141765 
L 66.278741 172.913232 
L 67.389557 161.370299 
L 68.500373 177.241831 
L 69.611189 178.684698 
L 70.722006 187.341898 
L 72.943638 184.456165 
L 74.054454 181.570431 
L 75.16527 180.127565 
L 76.276087 181.570431 
L 77.386903 184.456165 
L 78.497719 185.899031 
L 79.608535 184.456165 
L 80.719351 180.127565 
L 81.830168 183.013298 
L 82.940984 181.570431 
L 84.0518 168.584632 
L 85.162616 195.999098 
L 86.273432 190.227631 
L 87.384249 187.341898 
L 88.495065 188.784764 
L 89.605881 193.113364 
L 91.827513 195.999098 
L 92.938329 194.556231 
L 94.049146 197.441964 
L 97.381594 201.770564 
L 98.49241 195.999098 
L 99.603227 201.770564 
L 100.714043 148.384499 
L 101.824859 197.441964 
L 102.935675 193.113364 
L 104.046491 184.456165 
L 105.157308 181.570431 
L 106.268124 184.456165 
L 107.37894 172.913232 
L 108.489756 175.798965 
L 109.600572 144.055899 
L 110.711389 178.684698 
L 111.822205 131.0701 
L 112.933021 183.013298 
L 114.043837 159.927432 
L 115.154653 185.899031 
L 116.265469 188.784764 
L 117.376286 185.899031 
L 118.487102 193.113364 
L 119.597918 198.884831 
L 120.708734 197.441964 
L 121.81955 194.556231 
L 122.930367 204.656297 
L 124.041183 203.213431 
L 125.151999 198.884831 
L 126.262815 191.670498 
L 127.373631 197.441964 
L 128.484448 191.670498 
L 129.595264 162.813165 
L 130.70608 200.327697 
L 131.816896 203.213431 
L 132.927712 198.884831 
L 134.038529 193.113364 
L 135.149345 204.656297 
L 136.260161 198.884831 
L 137.370977 203.213431 
L 138.481793 198.884831 
L 139.592609 149.827366 
L 140.703426 203.213431 
L 141.814242 197.441964 
L 142.925058 190.227631 
L 144.035874 198.884831 
L 145.14669 187.341898 
L 146.257507 195.999098 
L 147.368323 188.784764 
L 148.479139 184.456165 
L 149.589955 198.884831 
L 150.700771 193.113364 
L 151.811588 201.770564 
L 152.922404 198.884831 
L 154.03322 190.227631 
L 155.144036 194.556231 
L 156.254852 171.470365 
L 157.365669 197.441964 
L 159.587301 194.556231 
L 160.698117 197.441964 
L 161.808933 206.099164 
L 162.91975 204.656297 
L 164.030566 206.099164 
L 165.141382 178.684698 
L 166.252198 195.999098 
L 167.363014 200.327697 
L 169.584647 116.641433 
L 170.695463 139.727299 
L 171.806279 170.027498 
L 172.917095 135.398699 
L 174.027911 191.670498 
L 175.138728 183.013298 
L 176.249544 159.927432 
L 177.36036 170.027498 
L 178.471176 185.899031 
L 179.581992 165.698898 
L 180.692809 148.384499 
L 181.803625 177.241831 
L 182.914441 161.370299 
L 184.025257 168.584632 
L 185.136073 172.913232 
L 186.24689 151.270232 
L 187.357706 155.598832 
L 188.468522 167.141765 
L 189.579338 185.899031 
L 190.690154 167.141765 
L 191.80097 188.784764 
L 192.911787 172.913232 
L 194.022603 154.155965 
L 195.133419 165.698898 
L 196.244235 170.027498 
L 197.355051 158.484565 
L 198.465868 167.141765 
L 199.576684 165.698898 
L 200.6875 195.999098 
L 201.798316 171.470365 
L 202.909132 185.899031 
L 204.019949 174.356098 
L 205.130765 172.913232 
L 206.241581 157.041699 
L 207.352397 183.013298 
L 208.463213 159.927432 
L 209.57403 175.798965 
L 220.682191 175.798965 
L 221.793008 154.155965 
L 222.903824 183.013298 
L 224.01464 116.641433 
L 225.125456 120.970033 
L 226.236272 123.855766 
L 227.347089 162.813165 
L 228.457905 132.512966 
L 229.568721 149.827366 
L 230.679537 129.627233 
L 231.790353 178.684698 
L 232.90117 170.027498 
L 234.011986 162.813165 
L 235.122802 167.141765 
L 237.344434 178.684698 
L 238.45525 146.941632 
L 239.566067 151.270232 
L 240.676883 183.013298 
L 242.898515 148.384499 
L 244.009331 172.913232 
L 245.120148 157.041699 
L 246.230964 122.4129 
L 247.34178 175.798965 
L 248.452596 154.155965 
L 249.563412 162.813165 
L 250.674229 161.370299 
L 251.785045 168.584632 
L 252.895861 170.027498 
L 254.006677 155.598832 
L 255.117493 171.470365 
L 256.22831 167.141765 
L 257.339126 181.570431 
L 258.449942 183.013298 
L 259.560758 171.470365 
L 260.671574 177.241831 
L 261.782391 171.470365 
L 262.893207 184.456165 
L 264.004023 162.813165 
L 265.114839 181.570431 
L 266.225655 157.041699 
L 267.336471 154.155965 
L 268.447288 136.841566 
L 269.558104 180.127565 
L 270.66892 185.899031 
L 271.779736 159.927432 
L 272.890552 122.4129 
L 274.001369 154.155965 
L 275.112185 181.570431 
L 276.223001 142.613033 
L 277.333817 198.884831 
L 278.444633 165.698898 
L 279.55545 198.884831 
L 280.666266 195.999098 
L 281.777082 129.627233 
L 282.887898 148.384499 
L 283.998714 144.055899 
L 285.109531 154.155965 
L 286.220347 162.813165 
L 287.331163 136.841566 
L 288.441979 144.055899 
L 289.552795 162.813165 
L 290.663611 145.498766 
L 291.774428 151.270232 
L 292.885244 161.370299 
L 293.99606 157.041699 
L 295.106876 146.941632 
L 296.217692 152.713099 
L 297.328509 157.041699 
L 299.550141 154.155965 
L 300.660957 161.370299 
L 301.771773 174.356098 
L 302.88259 161.370299 
L 303.993406 174.356098 
L 305.104222 158.484565 
L 306.215038 157.041699 
L 307.325854 133.955833 
L 308.436671 167.141765 
L 309.547487 164.256032 
L 310.658303 175.798965 
L 311.769119 144.055899 
L 312.879935 141.170166 
L 313.990751 157.041699 
L 315.101568 188.784764 
L 316.212384 175.798965 
L 317.3232 183.013298 
L 318.434016 167.141765 
L 319.544832 155.598832 
L 320.655649 170.027498 
L 321.766465 155.598832 
L 322.877281 146.941632 
L 323.988097 135.398699 
L 325.098913 184.456165 
L 326.20973 197.441964 
L 327.320546 194.556231 
L 328.431362 165.698898 
L 329.542178 161.370299 
L 330.652994 187.341898 
L 331.763811 184.456165 
L 332.874627 177.241831 
L 333.985443 102.212767 
L 335.096259 131.0701 
L 336.207075 133.955833 
L 337.317892 125.298633 
L 338.428708 131.0701 
L 339.539524 128.184366 
L 340.65034 132.512966 
L 341.761156 139.727299 
L 342.871972 131.0701 
L 343.982789 129.627233 
L 345.093605 146.941632 
L 346.204421 145.498766 
L 347.315237 142.613033 
L 348.426053 177.241831 
L 349.53687 146.941632 
L 350.647686 141.170166 
L 351.758502 146.941632 
L 352.869318 170.027498 
L 352.869318 170.027498 
" clip-path="url(#p472a3e31f4)" style="fill: none; stroke: #ff7f0e; stroke-width: 1.5; stroke-linecap: square"/>
   </g>
   <g id="patch_3">
    <path d="M 33.2875 224.64 
L 33.2875 7.2 
" style="fill: none; stroke: #000000; stroke-width: 0.8; stroke-linejoin: miter; stroke-linecap: square"/>
   </g>
   <g id="patch_4">
    <path d="M 368.0875 224.64 
L 368.0875 7.2 
" style="fill: none; stroke: #000000; stroke-width: 0.8; stroke-linejoin: miter; stroke-linecap: square"/>
   </g>
   <g id="patch_5">
    <path d="M 33.2875 224.64 
L 368.0875 224.64 
" style="fill: none; stroke: #000000; stroke-width: 0.8; stroke-linejoin: miter; stroke-linecap: square"/>
   </g>
   <g id="patch_6">
    <path d="M 33.2875 7.2 
L 368.0875 7.2 
" style="fill: none; stroke: #000000; stroke-width: 0.8; stroke-linejoin: miter; stroke-linecap: square"/>
   </g>
   <g id="legend_1">
    <g id="patch_7">
     <path d="M 40.2875 44.55625 
L 109.382813 44.55625 
Q 111.382813 44.55625 111.382813 42.55625 
L 111.382813 14.2 
Q 111.382813 12.2 109.382813 12.2 
L 40.2875 12.2 
Q 38.2875 12.2 38.2875 14.2 
L 38.2875 42.55625 
Q 38.2875 44.55625 40.2875 44.55625 
z
" style="fill: #ffffff; opacity: 0.8; stroke: #cccccc; stroke-linejoin: miter"/>
    </g>
    <g id="line2d_20">
     <path d="M 42.2875 20.298437 
L 52.2875 20.298437 
L 62.2875 20.298437 
" style="fill: none; stroke: #1f77b4; stroke-width: 1.5; stroke-linecap: square"/>
    </g>
    <g id="text_18">
     <!-- Huawei -->
     <g transform="translate(70.2875 23.798437)scale(0.1 -0.1)">
      <defs>
       <path id="DejaVuSans-48" d="M 628 4666 
L 1259 4666 
L 1259 2753 
L 3553 2753 
L 3553 4666 
L 4184 4666 
L 4184 0 
L 3553 0 
L 3553 2222 
L 1259 2222 
L 1259 0 
L 628 0 
L 628 4666 
z
" transform="scale(0.015625)"/>
       <path id="DejaVuSans-75" d="M 544 1381 
L 544 3500 
L 1119 3500 
L 1119 1403 
Q 1119 906 1312 657 
Q 1506 409 1894 409 
Q 2359 409 2629 706 
Q 2900 1003 2900 1516 
L 2900 3500 
L 3475 3500 
L 3475 0 
L 2900 0 
L 2900 538 
Q 2691 219 2414 64 
Q 2138 -91 1772 -91 
Q 1169 -91 856 284 
Q 544 659 544 1381 
z
M 1991 3584 
L 1991 3584 
z
" transform="scale(0.015625)"/>
       <path id="DejaVuSans-61" d="M 2194 1759 
Q 1497 1759 1228 1600 
Q 959 1441 959 1056 
Q 959 750 1161 570 
Q 1363 391 1709 391 
Q 2188 391 2477 730 
Q 2766 1069 2766 1631 
L 2766 1759 
L 2194 1759 
z
M 3341 1997 
L 3341 0 
L 2766 0 
L 2766 531 
Q 2569 213 2275 61 
Q 1981 -91 1556 -91 
Q 1019 -91 701 211 
Q 384 513 384 1019 
Q 384 1609 779 1909 
Q 1175 2209 1959 2209 
L 2766 2209 
L 2766 2266 
Q 2766 2663 2505 2880 
Q 2244 3097 1772 3097 
Q 1472 3097 1187 3025 
Q 903 2953 641 2809 
L 641 3341 
Q 956 3463 1253 3523 
Q 1550 3584 1831 3584 
Q 2591 3584 2966 3190 
Q 3341 2797 3341 1997 
z
" transform="scale(0.015625)"/>
       <path id="DejaVuSans-77" d="M 269 3500 
L 844 3500 
L 1563 769 
L 2278 3500 
L 2956 3500 
L 3675 769 
L 4391 3500 
L 4966 3500 
L 4050 0 
L 3372 0 
L 2619 2869 
L 1863 0 
L 1184 0 
L 269 3500 
z
" transform="scale(0.015625)"/>
       <path id="DejaVuSans-65" d="M 3597 1894 
L 3597 1613 
L 953 1613 
Q 991 1019 1311 708 
Q 1631 397 2203 397 
Q 2534 397 2845 478 
Q 3156 559 3463 722 
L 3463 178 
Q 3153 47 2828 -22 
Q 2503 -91 2169 -91 
Q 1331 -91 842 396 
Q 353 884 353 1716 
Q 353 2575 817 3079 
Q 1281 3584 2069 3584 
Q 2775 3584 3186 3129 
Q 3597 2675 3597 1894 
z
M 3022 2063 
Q 3016 2534 2758 2815 
Q 2500 3097 2075 3097 
Q 1594 3097 1305 2825 
Q 1016 2553 972 2059 
L 3022 2063 
z
" transform="scale(0.015625)"/>
       <path id="DejaVuSans-69" d="M 603 3500 
L 1178 3500 
L 1178 0 
L 603 0 
L 603 3500 
z
M 603 4863 
L 1178 4863 
L 1178 4134 
L 603 4134 
L 603 4863 
z
" transform="scale(0.015625)"/>
      </defs>
      <use xlink:href="#DejaVuSans-48"/>
      <use xlink:href="#DejaVuSans-75" x="75.195312"/>
      <use xlink:href="#DejaVuSans-61" x="138.574219"/>
      <use xlink:href="#DejaVuSans-77" x="199.853516"/>
      <use xlink:href="#DejaVuSans-65" x="281.640625"/>
      <use xlink:href="#DejaVuSans-69" x="343.164062"/>
     </g>
    </g>
    <g id="line2d_21">
     <path d="M 42.2875 34.976562 
L 52.2875 34.976562 
L 62.2875 34.976562 
" style="fill: none; stroke: #ff7f0e; stroke-width: 1.5; stroke-linecap: square"/>
    </g>
    <g id="text_19">
     <!-- E66 -->
     <g transform="translate(70.2875 38.476562)scale(0.1 -0.1)">
      <defs>
       <path id="DejaVuSans-45" d="M 628 4666 
L 3578 4666 
L 3578 4134 
L 1259 4134 
L 1259 2753 
L 3481 2753 
L 3481 2222 
L 1259 2222 
L 1259 531 
L 3634 531 
L 3634 0 
L 628 0 
L 628 4666 
z
" transform="scale(0.015625)"/>
      </defs>
      <use xlink:href="#DejaVuSans-45"/>
      <use xlink:href="#DejaVuSans-36" x="63.183594"/>
      <use xlink:href="#DejaVuSans-36" x="126.806641"/>
     </g>
    </g>
   </g>
  </g>
 </g>
 <defs>
  <clipPath id="p472a3e31f4">
   <rect x="33.2875" y="7.2" width="334.8" height="217.44"/>
  </clipPath>
 </defs>
</svg>
