<?xml version="1.0" encoding="utf-8" standalone="no"?>
<!DOCTYPE svg PUBLIC "-//W3C//DTD SVG 1.1//EN"
  "http://www.w3.org/Graphics/SVG/1.1/DTD/svg11.dtd">
<svg xmlns:xlink="http://www.w3.org/1999/xlink" width="396.937886pt" height="248.518125pt" viewBox="0 0 396.937886 248.518125" xmlns="http://www.w3.org/2000/svg" version="1.1">
 <metadata>
  <rdf:RDF xmlns:dc="http://purl.org/dc/elements/1.1/" xmlns:cc="http://creativecommons.org/ns#" xmlns:rdf="http://www.w3.org/1999/02/22-rdf-syntax-ns#">
   <cc:Work>
    <dc:type rdf:resource="http://purl.org/dc/dcmitype/StillImage"/>
    <dc:date>2022-06-08T15:38:22.666237</dc:date>
    <dc:format>image/svg+xml</dc:format>
    <dc:creator>
     <cc:Agent>
      <dc:title>Matplotlib v3.5.2, https://matplotlib.org/</dc:title>
     </cc:Agent>
    </dc:creator>
   </cc:Work>
  </rdf:RDF>
 </metadata>
 <defs>
  <style type="text/css">*{stroke-linejoin: round; stroke-linecap: butt}</style>
 </defs>
 <g id="figure_1">
  <g id="patch_1">
   <path d="M 0 248.518125 
L 396.937886 248.518125 
L 396.937886 0 
L 0 0 
L 0 248.518125 
z
" style="fill: none"/>
  </g>
  <g id="axes_1">
   <g id="patch_2">
    <path d="M 33.2875 224.64 
L 368.0875 224.64 
L 368.0875 7.2 
L 33.2875 7.2 
z
" style="fill: #ffffff"/>
   </g>
   <g id="matplotlib.axis_1">
    <g id="xtick_1">
     <g id="line2d_1">
      <defs>
       <path id="m3ddd1b1ccf" d="M 0 0 
L 0 3.5 
" style="stroke: #000000; stroke-width: 0.8"/>
      </defs>
      <g>
       <use xlink:href="#m3ddd1b1ccf" x="48.505682" y="224.64" style="stroke: #000000; stroke-width: 0.8"/>
      </g>
     </g>
     <g id="text_1">
      <!-- 05-18 00 -->
      <g transform="translate(26.025213 239.238437)scale(0.1 -0.1)">
       <defs>
        <path id="DejaVuSans-30" d="M 2034 4250 
Q 1547 4250 1301 3770 
Q 1056 3291 1056 2328 
Q 1056 1369 1301 889 
Q 1547 409 2034 409 
Q 2525 409 2770 889 
Q 3016 1369 3016 2328 
Q 3016 3291 2770 3770 
Q 2525 4250 2034 4250 
z
M 2034 4750 
Q 2819 4750 3233 4129 
Q 3647 3509 3647 2328 
Q 3647 1150 3233 529 
Q 2819 -91 2034 -91 
Q 1250 -91 836 529 
Q 422 1150 422 2328 
Q 422 3509 836 4129 
Q 1250 4750 2034 4750 
z
" transform="scale(0.015625)"/>
        <path id="DejaVuSans-35" d="M 691 4666 
L 3169 4666 
L 3169 4134 
L 1269 4134 
L 1269 2991 
Q 1406 3038 1543 3061 
Q 1681 3084 1819 3084 
Q 2600 3084 3056 2656 
Q 3513 2228 3513 1497 
Q 3513 744 3044 326 
Q 2575 -91 1722 -91 
Q 1428 -91 1123 -41 
Q 819 9 494 109 
L 494 744 
Q 775 591 1075 516 
Q 1375 441 1709 441 
Q 2250 441 2565 725 
Q 2881 1009 2881 1497 
Q 2881 1984 2565 2268 
Q 2250 2553 1709 2553 
Q 1456 2553 1204 2497 
Q 953 2441 691 2322 
L 691 4666 
z
" transform="scale(0.015625)"/>
        <path id="DejaVuSans-2d" d="M 313 2009 
L 1997 2009 
L 1997 1497 
L 313 1497 
L 313 2009 
z
" transform="scale(0.015625)"/>
        <path id="DejaVuSans-31" d="M 794 531 
L 1825 531 
L 1825 4091 
L 703 3866 
L 703 4441 
L 1819 4666 
L 2450 4666 
L 2450 531 
L 3481 531 
L 3481 0 
L 794 0 
L 794 531 
z
" transform="scale(0.015625)"/>
        <path id="DejaVuSans-38" d="M 2034 2216 
Q 1584 2216 1326 1975 
Q 1069 1734 1069 1313 
Q 1069 891 1326 650 
Q 1584 409 2034 409 
Q 2484 409 2743 651 
Q 3003 894 3003 1313 
Q 3003 1734 2745 1975 
Q 2488 2216 2034 2216 
z
M 1403 2484 
Q 997 2584 770 2862 
Q 544 3141 544 3541 
Q 544 4100 942 4425 
Q 1341 4750 2034 4750 
Q 2731 4750 3128 4425 
Q 3525 4100 3525 3541 
Q 3525 3141 3298 2862 
Q 3072 2584 2669 2484 
Q 3125 2378 3379 2068 
Q 3634 1759 3634 1313 
Q 3634 634 3220 271 
Q 2806 -91 2034 -91 
Q 1263 -91 848 271 
Q 434 634 434 1313 
Q 434 1759 690 2068 
Q 947 2378 1403 2484 
z
M 1172 3481 
Q 1172 3119 1398 2916 
Q 1625 2713 2034 2713 
Q 2441 2713 2670 2916 
Q 2900 3119 2900 3481 
Q 2900 3844 2670 4047 
Q 2441 4250 2034 4250 
Q 1625 4250 1398 4047 
Q 1172 3844 1172 3481 
z
" transform="scale(0.015625)"/>
        <path id="DejaVuSans-20" transform="scale(0.015625)"/>
       </defs>
       <use xlink:href="#DejaVuSans-30"/>
       <use xlink:href="#DejaVuSans-35" x="63.623047"/>
       <use xlink:href="#DejaVuSans-2d" x="127.246094"/>
       <use xlink:href="#DejaVuSans-31" x="163.330078"/>
       <use xlink:href="#DejaVuSans-38" x="226.953125"/>
       <use xlink:href="#DejaVuSans-20" x="290.576172"/>
       <use xlink:href="#DejaVuSans-30" x="322.363281"/>
       <use xlink:href="#DejaVuSans-30" x="385.986328"/>
      </g>
     </g>
    </g>
    <g id="xtick_2">
     <g id="line2d_2">
      <g>
       <use xlink:href="#m3ddd1b1ccf" x="88.349649" y="224.64" style="stroke: #000000; stroke-width: 0.8"/>
      </g>
     </g>
     <g id="text_2">
      <!-- 05-18 03 -->
      <g transform="translate(65.86918 239.238437)scale(0.1 -0.1)">
       <defs>
        <path id="DejaVuSans-33" d="M 2597 2516 
Q 3050 2419 3304 2112 
Q 3559 1806 3559 1356 
Q 3559 666 3084 287 
Q 2609 -91 1734 -91 
Q 1441 -91 1130 -33 
Q 819 25 488 141 
L 488 750 
Q 750 597 1062 519 
Q 1375 441 1716 441 
Q 2309 441 2620 675 
Q 2931 909 2931 1356 
Q 2931 1769 2642 2001 
Q 2353 2234 1838 2234 
L 1294 2234 
L 1294 2753 
L 1863 2753 
Q 2328 2753 2575 2939 
Q 2822 3125 2822 3475 
Q 2822 3834 2567 4026 
Q 2313 4219 1838 4219 
Q 1578 4219 1281 4162 
Q 984 4106 628 3988 
L 628 4550 
Q 988 4650 1302 4700 
Q 1616 4750 1894 4750 
Q 2613 4750 3031 4423 
Q 3450 4097 3450 3541 
Q 3450 3153 3228 2886 
Q 3006 2619 2597 2516 
z
" transform="scale(0.015625)"/>
       </defs>
       <use xlink:href="#DejaVuSans-30"/>
       <use xlink:href="#DejaVuSans-35" x="63.623047"/>
       <use xlink:href="#DejaVuSans-2d" x="127.246094"/>
       <use xlink:href="#DejaVuSans-31" x="163.330078"/>
       <use xlink:href="#DejaVuSans-38" x="226.953125"/>
       <use xlink:href="#DejaVuSans-20" x="290.576172"/>
       <use xlink:href="#DejaVuSans-30" x="322.363281"/>
       <use xlink:href="#DejaVuSans-33" x="385.986328"/>
      </g>
     </g>
    </g>
    <g id="xtick_3">
     <g id="line2d_3">
      <g>
       <use xlink:href="#m3ddd1b1ccf" x="128.193616" y="224.64" style="stroke: #000000; stroke-width: 0.8"/>
      </g>
     </g>
     <g id="text_3">
      <!-- 05-18 06 -->
      <g transform="translate(105.713147 239.238437)scale(0.1 -0.1)">
       <defs>
        <path id="DejaVuSans-36" d="M 2113 2584 
Q 1688 2584 1439 2293 
Q 1191 2003 1191 1497 
Q 1191 994 1439 701 
Q 1688 409 2113 409 
Q 2538 409 2786 701 
Q 3034 994 3034 1497 
Q 3034 2003 2786 2293 
Q 2538 2584 2113 2584 
z
M 3366 4563 
L 3366 3988 
Q 3128 4100 2886 4159 
Q 2644 4219 2406 4219 
Q 1781 4219 1451 3797 
Q 1122 3375 1075 2522 
Q 1259 2794 1537 2939 
Q 1816 3084 2150 3084 
Q 2853 3084 3261 2657 
Q 3669 2231 3669 1497 
Q 3669 778 3244 343 
Q 2819 -91 2113 -91 
Q 1303 -91 875 529 
Q 447 1150 447 2328 
Q 447 3434 972 4092 
Q 1497 4750 2381 4750 
Q 2619 4750 2861 4703 
Q 3103 4656 3366 4563 
z
" transform="scale(0.015625)"/>
       </defs>
       <use xlink:href="#DejaVuSans-30"/>
       <use xlink:href="#DejaVuSans-35" x="63.623047"/>
       <use xlink:href="#DejaVuSans-2d" x="127.246094"/>
       <use xlink:href="#DejaVuSans-31" x="163.330078"/>
       <use xlink:href="#DejaVuSans-38" x="226.953125"/>
       <use xlink:href="#DejaVuSans-20" x="290.576172"/>
       <use xlink:href="#DejaVuSans-30" x="322.363281"/>
       <use xlink:href="#DejaVuSans-36" x="385.986328"/>
      </g>
     </g>
    </g>
    <g id="xtick_4">
     <g id="line2d_4">
      <g>
       <use xlink:href="#m3ddd1b1ccf" x="168.037583" y="224.64" style="stroke: #000000; stroke-width: 0.8"/>
      </g>
     </g>
     <g id="text_4">
      <!-- 05-18 09 -->
      <g transform="translate(145.557114 239.238437)scale(0.1 -0.1)">
       <defs>
        <path id="DejaVuSans-39" d="M 703 97 
L 703 672 
Q 941 559 1184 500 
Q 1428 441 1663 441 
Q 2288 441 2617 861 
Q 2947 1281 2994 2138 
Q 2813 1869 2534 1725 
Q 2256 1581 1919 1581 
Q 1219 1581 811 2004 
Q 403 2428 403 3163 
Q 403 3881 828 4315 
Q 1253 4750 1959 4750 
Q 2769 4750 3195 4129 
Q 3622 3509 3622 2328 
Q 3622 1225 3098 567 
Q 2575 -91 1691 -91 
Q 1453 -91 1209 -44 
Q 966 3 703 97 
z
M 1959 2075 
Q 2384 2075 2632 2365 
Q 2881 2656 2881 3163 
Q 2881 3666 2632 3958 
Q 2384 4250 1959 4250 
Q 1534 4250 1286 3958 
Q 1038 3666 1038 3163 
Q 1038 2656 1286 2365 
Q 1534 2075 1959 2075 
z
" transform="scale(0.015625)"/>
       </defs>
       <use xlink:href="#DejaVuSans-30"/>
       <use xlink:href="#DejaVuSans-35" x="63.623047"/>
       <use xlink:href="#DejaVuSans-2d" x="127.246094"/>
       <use xlink:href="#DejaVuSans-31" x="163.330078"/>
       <use xlink:href="#DejaVuSans-38" x="226.953125"/>
       <use xlink:href="#DejaVuSans-20" x="290.576172"/>
       <use xlink:href="#DejaVuSans-30" x="322.363281"/>
       <use xlink:href="#DejaVuSans-39" x="385.986328"/>
      </g>
     </g>
    </g>
    <g id="xtick_5">
     <g id="line2d_5">
      <g>
       <use xlink:href="#m3ddd1b1ccf" x="207.88155" y="224.64" style="stroke: #000000; stroke-width: 0.8"/>
      </g>
     </g>
     <g id="text_5">
      <!-- 05-18 12 -->
      <g transform="translate(185.401081 239.238437)scale(0.1 -0.1)">
       <defs>
        <path id="DejaVuSans-32" d="M 1228 531 
L 3431 531 
L 3431 0 
L 469 0 
L 469 531 
Q 828 903 1448 1529 
Q 2069 2156 2228 2338 
Q 2531 2678 2651 2914 
Q 2772 3150 2772 3378 
Q 2772 3750 2511 3984 
Q 2250 4219 1831 4219 
Q 1534 4219 1204 4116 
Q 875 4013 500 3803 
L 500 4441 
Q 881 4594 1212 4672 
Q 1544 4750 1819 4750 
Q 2544 4750 2975 4387 
Q 3406 4025 3406 3419 
Q 3406 3131 3298 2873 
Q 3191 2616 2906 2266 
Q 2828 2175 2409 1742 
Q 1991 1309 1228 531 
z
" transform="scale(0.015625)"/>
       </defs>
       <use xlink:href="#DejaVuSans-30"/>
       <use xlink:href="#DejaVuSans-35" x="63.623047"/>
       <use xlink:href="#DejaVuSans-2d" x="127.246094"/>
       <use xlink:href="#DejaVuSans-31" x="163.330078"/>
       <use xlink:href="#DejaVuSans-38" x="226.953125"/>
       <use xlink:href="#DejaVuSans-20" x="290.576172"/>
       <use xlink:href="#DejaVuSans-31" x="322.363281"/>
       <use xlink:href="#DejaVuSans-32" x="385.986328"/>
      </g>
     </g>
    </g>
    <g id="xtick_6">
     <g id="line2d_6">
      <g>
       <use xlink:href="#m3ddd1b1ccf" x="247.725517" y="224.64" style="stroke: #000000; stroke-width: 0.8"/>
      </g>
     </g>
     <g id="text_6">
      <!-- 05-18 15 -->
      <g transform="translate(225.245048 239.238437)scale(0.1 -0.1)">
       <use xlink:href="#DejaVuSans-30"/>
       <use xlink:href="#DejaVuSans-35" x="63.623047"/>
       <use xlink:href="#DejaVuSans-2d" x="127.246094"/>
       <use xlink:href="#DejaVuSans-31" x="163.330078"/>
       <use xlink:href="#DejaVuSans-38" x="226.953125"/>
       <use xlink:href="#DejaVuSans-20" x="290.576172"/>
       <use xlink:href="#DejaVuSans-31" x="322.363281"/>
       <use xlink:href="#DejaVuSans-35" x="385.986328"/>
      </g>
     </g>
    </g>
    <g id="xtick_7">
     <g id="line2d_7">
      <g>
       <use xlink:href="#m3ddd1b1ccf" x="287.569483" y="224.64" style="stroke: #000000; stroke-width: 0.8"/>
      </g>
     </g>
     <g id="text_7">
      <!-- 05-18 18 -->
      <g transform="translate(265.089015 239.238437)scale(0.1 -0.1)">
       <use xlink:href="#DejaVuSans-30"/>
       <use xlink:href="#DejaVuSans-35" x="63.623047"/>
       <use xlink:href="#DejaVuSans-2d" x="127.246094"/>
       <use xlink:href="#DejaVuSans-31" x="163.330078"/>
       <use xlink:href="#DejaVuSans-38" x="226.953125"/>
       <use xlink:href="#DejaVuSans-20" x="290.576172"/>
       <use xlink:href="#DejaVuSans-31" x="322.363281"/>
       <use xlink:href="#DejaVuSans-38" x="385.986328"/>
      </g>
     </g>
    </g>
    <g id="xtick_8">
     <g id="line2d_8">
      <g>
       <use xlink:href="#m3ddd1b1ccf" x="327.41345" y="224.64" style="stroke: #000000; stroke-width: 0.8"/>
      </g>
     </g>
     <g id="text_8">
      <!-- 05-18 21 -->
      <g transform="translate(304.932982 239.238437)scale(0.1 -0.1)">
       <use xlink:href="#DejaVuSans-30"/>
       <use xlink:href="#DejaVuSans-35" x="63.623047"/>
       <use xlink:href="#DejaVuSans-2d" x="127.246094"/>
       <use xlink:href="#DejaVuSans-31" x="163.330078"/>
       <use xlink:href="#DejaVuSans-38" x="226.953125"/>
       <use xlink:href="#DejaVuSans-20" x="290.576172"/>
       <use xlink:href="#DejaVuSans-32" x="322.363281"/>
       <use xlink:href="#DejaVuSans-31" x="385.986328"/>
      </g>
     </g>
    </g>
    <g id="xtick_9">
     <g id="line2d_9">
      <g>
       <use xlink:href="#m3ddd1b1ccf" x="367.257417" y="224.64" style="stroke: #000000; stroke-width: 0.8"/>
      </g>
     </g>
     <g id="text_9">
      <!-- 05-19 00 -->
      <g transform="translate(344.776949 239.238437)scale(0.1 -0.1)">
       <use xlink:href="#DejaVuSans-30"/>
       <use xlink:href="#DejaVuSans-35" x="63.623047"/>
       <use xlink:href="#DejaVuSans-2d" x="127.246094"/>
       <use xlink:href="#DejaVuSans-31" x="163.330078"/>
       <use xlink:href="#DejaVuSans-39" x="226.953125"/>
       <use xlink:href="#DejaVuSans-20" x="290.576172"/>
       <use xlink:href="#DejaVuSans-30" x="322.363281"/>
       <use xlink:href="#DejaVuSans-30" x="385.986328"/>
      </g>
     </g>
    </g>
   </g>
   <g id="matplotlib.axis_2">
    <g id="ytick_1">
     <g id="line2d_10">
      <defs>
       <path id="med8d374f6f" d="M 0 0 
L -3.5 0 
" style="stroke: #000000; stroke-width: 0.8"/>
      </defs>
      <g>
       <use xlink:href="#med8d374f6f" x="33.2875" y="195.721212" style="stroke: #000000; stroke-width: 0.8"/>
      </g>
     </g>
     <g id="text_10">
      <!-- 60 -->
      <g transform="translate(13.5625 199.520431)scale(0.1 -0.1)">
       <use xlink:href="#DejaVuSans-36"/>
       <use xlink:href="#DejaVuSans-30" x="63.623047"/>
      </g>
     </g>
    </g>
    <g id="ytick_2">
     <g id="line2d_11">
      <g>
       <use xlink:href="#med8d374f6f" x="33.2875" y="166.436364" style="stroke: #000000; stroke-width: 0.8"/>
      </g>
     </g>
     <g id="text_11">
      <!-- 80 -->
      <g transform="translate(13.5625 170.235582)scale(0.1 -0.1)">
       <use xlink:href="#DejaVuSans-38"/>
       <use xlink:href="#DejaVuSans-30" x="63.623047"/>
      </g>
     </g>
    </g>
    <g id="ytick_3">
     <g id="line2d_12">
      <g>
       <use xlink:href="#med8d374f6f" x="33.2875" y="137.151515" style="stroke: #000000; stroke-width: 0.8"/>
      </g>
     </g>
     <g id="text_12">
      <!-- 100 -->
      <g transform="translate(7.2 140.950734)scale(0.1 -0.1)">
       <use xlink:href="#DejaVuSans-31"/>
       <use xlink:href="#DejaVuSans-30" x="63.623047"/>
       <use xlink:href="#DejaVuSans-30" x="127.246094"/>
      </g>
     </g>
    </g>
    <g id="ytick_4">
     <g id="line2d_13">
      <g>
       <use xlink:href="#med8d374f6f" x="33.2875" y="107.866667" style="stroke: #000000; stroke-width: 0.8"/>
      </g>
     </g>
     <g id="text_13">
      <!-- 120 -->
      <g transform="translate(7.2 111.665885)scale(0.1 -0.1)">
       <use xlink:href="#DejaVuSans-31"/>
       <use xlink:href="#DejaVuSans-32" x="63.623047"/>
       <use xlink:href="#DejaVuSans-30" x="127.246094"/>
      </g>
     </g>
    </g>
    <g id="ytick_5">
     <g id="line2d_14">
      <g>
       <use xlink:href="#med8d374f6f" x="33.2875" y="78.581818" style="stroke: #000000; stroke-width: 0.8"/>
      </g>
     </g>
     <g id="text_14">
      <!-- 140 -->
      <g transform="translate(7.2 82.381037)scale(0.1 -0.1)">
       <defs>
        <path id="DejaVuSans-34" d="M 2419 4116 
L 825 1625 
L 2419 1625 
L 2419 4116 
z
M 2253 4666 
L 3047 4666 
L 3047 1625 
L 3713 1625 
L 3713 1100 
L 3047 1100 
L 3047 0 
L 2419 0 
L 2419 1100 
L 313 1100 
L 313 1709 
L 2253 4666 
z
" transform="scale(0.015625)"/>
       </defs>
       <use xlink:href="#DejaVuSans-31"/>
       <use xlink:href="#DejaVuSans-34" x="63.623047"/>
       <use xlink:href="#DejaVuSans-30" x="127.246094"/>
      </g>
     </g>
    </g>
    <g id="ytick_6">
     <g id="line2d_15">
      <g>
       <use xlink:href="#med8d374f6f" x="33.2875" y="49.29697" style="stroke: #000000; stroke-width: 0.8"/>
      </g>
     </g>
     <g id="text_15">
      <!-- 160 -->
      <g transform="translate(7.2 53.096188)scale(0.1 -0.1)">
       <use xlink:href="#DejaVuSans-31"/>
       <use xlink:href="#DejaVuSans-36" x="63.623047"/>
       <use xlink:href="#DejaVuSans-30" x="127.246094"/>
      </g>
     </g>
    </g>
    <g id="ytick_7">
     <g id="line2d_16">
      <g>
       <use xlink:href="#med8d374f6f" x="33.2875" y="20.012121" style="stroke: #000000; stroke-width: 0.8"/>
      </g>
     </g>
     <g id="text_16">
      <!-- 180 -->
      <g transform="translate(7.2 23.81134)scale(0.1 -0.1)">
       <use xlink:href="#DejaVuSans-31"/>
       <use xlink:href="#DejaVuSans-38" x="63.623047"/>
       <use xlink:href="#DejaVuSans-30" x="127.246094"/>
      </g>
     </g>
    </g>
   </g>
   <g id="line2d_17">
    <path d="M 48.505682 164.972121 
L 49.612459 137.151515 
L 50.719236 170.829091 
L 51.826012 170.829091 
L 52.932789 153.258182 
L 54.039566 173.757576 
L 55.146343 162.043636 
L 56.25312 167.900606 
L 57.359897 191.328485 
L 58.466674 198.649697 
L 59.57345 188.4 
L 60.680227 173.757576 
L 61.787004 184.007273 
L 62.893781 181.078788 
L 64.000558 179.614545 
L 65.107335 181.078788 
L 66.214112 173.757576 
L 67.320888 169.364848 
L 68.427665 185.471515 
L 69.534442 182.54303 
L 70.641219 189.864242 
L 72.854773 186.935758 
L 73.96155 192.792727 
L 75.068326 185.471515 
L 76.175103 186.935758 
L 77.28188 186.935758 
L 79.495434 184.007273 
L 80.602211 188.4 
L 81.708988 185.471515 
L 82.815764 189.864242 
L 83.922541 200.113939 
L 85.029318 201.578182 
L 86.136095 191.328485 
L 87.242872 195.721212 
L 88.349649 195.721212 
L 90.563202 204.506667 
L 91.669979 201.578182 
L 92.776756 210.363636 
L 93.883533 204.506667 
L 94.99031 204.506667 
L 96.097087 207.435152 
L 97.203864 207.435152 
L 98.31064 211.827879 
L 99.417417 200.113939 
L 100.524194 210.363636 
L 101.630971 200.113939 
L 102.737748 194.25697 
L 103.844525 189.864242 
L 104.951302 192.792727 
L 106.058079 184.007273 
L 107.164855 195.721212 
L 108.271632 197.185455 
L 109.378409 188.4 
L 110.485186 188.4 
L 111.591963 185.471515 
L 112.69874 188.4 
L 113.805517 192.792727 
L 114.912293 191.328485 
L 116.01907 198.649697 
L 117.125847 201.578182 
L 118.232624 198.649697 
L 119.339401 201.578182 
L 120.446178 201.578182 
L 121.552955 204.506667 
L 122.659731 203.042424 
L 123.766508 195.721212 
L 124.873285 205.970909 
L 125.980062 207.435152 
L 127.086839 203.042424 
L 128.193616 205.970909 
L 129.300393 211.827879 
L 130.407169 207.435152 
L 131.513946 208.899394 
L 132.620723 205.970909 
L 133.7275 207.435152 
L 134.834277 207.435152 
L 135.941054 204.506667 
L 137.047831 210.363636 
L 139.261384 204.506667 
L 140.368161 205.970909 
L 141.474938 204.506667 
L 142.581715 204.506667 
L 143.688492 205.970909 
L 144.795269 208.899394 
L 145.902045 207.435152 
L 147.008822 208.899394 
L 148.115599 205.970909 
L 149.222376 207.435152 
L 150.329153 207.435152 
L 151.43593 201.578182 
L 152.542707 201.578182 
L 153.649483 203.042424 
L 154.75626 195.721212 
L 155.863037 198.649697 
L 156.969814 194.25697 
L 158.076591 201.578182 
L 159.183368 205.970909 
L 160.290145 207.435152 
L 161.396921 210.363636 
L 162.503698 210.363636 
L 163.610475 214.756364 
L 164.717252 210.363636 
L 165.824029 208.899394 
L 166.930806 210.363636 
L 168.037583 198.649697 
L 169.14436 182.54303 
L 170.251136 184.007273 
L 171.357913 169.364848 
L 172.46469 121.044848 
L 173.571467 145.93697 
L 174.678244 94.688485 
L 175.785021 113.723636 
L 176.891798 97.61697 
L 177.998574 137.151515 
L 179.105351 153.258182 
L 180.212128 159.115152 
L 181.318905 154.722424 
L 182.425682 167.900606 
L 183.532459 172.293333 
L 184.639236 167.900606 
L 185.746012 164.972121 
L 186.852789 170.829091 
L 187.959566 182.54303 
L 189.066343 189.864242 
L 190.17312 173.757576 
L 191.279897 172.293333 
L 192.386674 162.043636 
L 193.49345 166.436364 
L 194.600227 166.436364 
L 195.707004 172.293333 
L 196.813781 181.078788 
L 197.920558 181.078788 
L 199.027335 172.293333 
L 200.134112 184.007273 
L 201.240888 178.150303 
L 202.347665 179.614545 
L 203.454442 173.757576 
L 204.561219 176.686061 
L 205.667996 182.54303 
L 206.774773 169.364848 
L 207.88155 160.579394 
L 208.988326 154.722424 
L 221.162872 150.329697 
L 222.269649 132.758788 
L 223.376426 143.008485 
L 224.483202 125.437576 
L 225.589979 157.650909 
L 226.696756 140.08 
L 227.803533 151.793939 
L 228.91031 172.293333 
L 230.017087 159.115152 
L 231.123864 160.579394 
L 232.23064 175.221818 
L 233.337417 172.293333 
L 234.444194 179.614545 
L 235.550971 164.972121 
L 236.657748 162.043636 
L 237.764525 157.650909 
L 238.871302 164.972121 
L 239.978079 159.115152 
L 241.084855 150.329697 
L 242.191632 150.329697 
L 243.298409 156.186667 
L 244.405186 151.793939 
L 245.511963 164.972121 
L 246.61874 159.115152 
L 247.725517 143.008485 
L 248.832293 144.472727 
L 249.93907 176.686061 
L 252.152624 164.972121 
L 253.259401 166.436364 
L 254.366178 176.686061 
L 255.472955 182.54303 
L 256.579731 173.757576 
L 257.686508 182.54303 
L 258.793285 186.935758 
L 259.900062 192.792727 
L 261.006839 185.471515 
L 262.113616 181.078788 
L 263.220393 170.829091 
L 264.327169 159.115152 
L 265.433946 162.043636 
L 266.540723 172.293333 
L 267.6475 172.293333 
L 268.754277 138.615758 
L 269.861054 126.901818 
L 270.967831 129.830303 
L 272.074607 147.401212 
L 273.181384 159.115152 
L 274.288161 128.366061 
L 275.394938 131.294545 
L 276.501715 126.901818 
L 277.608492 103.473939 
L 278.715269 115.187879 
L 279.822045 140.08 
L 280.928822 138.615758 
L 282.035599 148.865455 
L 283.142376 150.329697 
L 284.249153 162.043636 
L 285.35593 148.865455 
L 286.462707 154.722424 
L 287.569483 150.329697 
L 288.67626 156.186667 
L 289.783037 153.258182 
L 290.889814 166.436364 
L 291.996591 162.043636 
L 293.103368 151.793939 
L 294.210145 153.258182 
L 295.316921 156.186667 
L 296.423698 153.258182 
L 297.530475 156.186667 
L 298.637252 166.436364 
L 299.744029 159.115152 
L 300.850806 154.722424 
L 301.957583 176.686061 
L 303.06436 170.829091 
L 304.171136 163.507879 
L 305.277913 160.579394 
L 306.38469 167.900606 
L 307.491467 154.722424 
L 308.598244 153.258182 
L 309.705021 172.293333 
L 310.811798 151.793939 
L 311.918574 159.115152 
L 313.025351 154.722424 
L 315.238905 172.293333 
L 316.345682 167.900606 
L 317.452459 156.186667 
L 318.559236 166.436364 
L 319.666012 172.293333 
L 320.772789 156.186667 
L 321.879566 154.722424 
L 322.986343 131.294545 
L 324.09312 132.758788 
L 325.199897 115.187879 
L 326.306674 18.547879 
L 327.41345 17.083636 
L 329.627004 93.224242 
L 330.733781 118.116364 
L 331.840558 110.795152 
L 332.947335 129.830303 
L 334.054112 140.08 
L 335.160888 134.22303 
L 336.267665 148.865455 
L 338.481219 154.722424 
L 339.587996 148.865455 
L 340.694773 150.329697 
L 341.80155 148.865455 
L 342.908326 150.329697 
L 344.015103 154.722424 
L 345.12188 153.258182 
L 346.228657 154.722424 
L 347.335434 150.329697 
L 348.442211 150.329697 
L 349.548988 151.793939 
L 350.655764 159.115152 
L 351.762541 154.722424 
L 352.869318 151.793939 
L 352.869318 151.793939 
" clip-path="url(#pf4b054854e)" style="fill: none; stroke: #1f77b4; stroke-width: 1.5; stroke-linecap: square"/>
   </g>
   <g id="line2d_18">
    <path d="M 48.505682 159.115152 
L 49.612459 157.650909 
L 50.719236 144.472727 
L 51.826012 176.686061 
L 52.932789 189.864242 
L 54.039566 169.364848 
L 55.146343 197.185455 
L 56.25312 173.757576 
L 57.359897 176.686061 
L 58.466674 173.757576 
L 59.57345 179.614545 
L 60.680227 181.078788 
L 61.787004 184.007273 
L 62.893781 173.757576 
L 64.000558 176.686061 
L 65.107335 169.364848 
L 66.214112 175.221818 
L 67.320888 163.507879 
L 68.427665 179.614545 
L 69.534442 181.078788 
L 70.641219 189.864242 
L 72.854773 186.935758 
L 73.96155 184.007273 
L 75.068326 182.54303 
L 76.175103 184.007273 
L 77.28188 186.935758 
L 78.388657 188.4 
L 79.495434 186.935758 
L 80.602211 182.54303 
L 81.708988 185.471515 
L 82.815764 184.007273 
L 83.922541 170.829091 
L 85.029318 198.649697 
L 86.136095 192.792727 
L 87.242872 189.864242 
L 88.349649 191.328485 
L 89.456426 195.721212 
L 91.669979 198.649697 
L 92.776756 197.185455 
L 93.883533 200.113939 
L 97.203864 204.506667 
L 98.31064 198.649697 
L 99.417417 204.506667 
L 100.524194 150.329697 
L 101.630971 200.113939 
L 102.737748 195.721212 
L 103.844525 186.935758 
L 104.951302 184.007273 
L 106.058079 186.935758 
L 107.164855 175.221818 
L 108.271632 178.150303 
L 109.378409 145.93697 
L 110.485186 181.078788 
L 111.591963 132.758788 
L 112.69874 185.471515 
L 113.805517 162.043636 
L 114.912293 188.4 
L 116.01907 191.328485 
L 117.125847 188.4 
L 118.232624 195.721212 
L 119.339401 201.578182 
L 120.446178 200.113939 
L 121.552955 197.185455 
L 122.659731 207.435152 
L 123.766508 205.970909 
L 124.873285 201.578182 
L 125.980062 194.25697 
L 127.086839 200.113939 
L 128.193616 194.25697 
L 129.300393 164.972121 
L 130.407169 203.042424 
L 131.513946 205.970909 
L 132.620723 201.578182 
L 133.7275 195.721212 
L 134.834277 207.435152 
L 135.941054 201.578182 
L 137.047831 205.970909 
L 138.154607 201.578182 
L 139.261384 151.793939 
L 140.368161 205.970909 
L 141.474938 200.113939 
L 142.581715 192.792727 
L 143.688492 201.578182 
L 144.795269 189.864242 
L 145.902045 198.649697 
L 147.008822 191.328485 
L 148.115599 186.935758 
L 149.222376 201.578182 
L 150.329153 195.721212 
L 151.43593 204.506667 
L 152.542707 201.578182 
L 153.649483 192.792727 
L 154.75626 197.185455 
L 155.863037 173.757576 
L 156.969814 200.113939 
L 159.183368 197.185455 
L 160.290145 200.113939 
L 161.396921 208.899394 
L 162.503698 207.435152 
L 163.610475 208.899394 
L 164.717252 181.078788 
L 165.824029 198.649697 
L 166.930806 203.042424 
L 169.14436 118.116364 
L 170.251136 141.544242 
L 171.357913 172.293333 
L 172.46469 137.151515 
L 173.571467 194.25697 
L 174.678244 185.471515 
L 175.785021 162.043636 
L 176.891798 172.293333 
L 177.998574 188.4 
L 179.105351 167.900606 
L 180.212128 150.329697 
L 181.318905 179.614545 
L 182.425682 163.507879 
L 183.532459 170.829091 
L 184.639236 175.221818 
L 185.746012 153.258182 
L 186.852789 157.650909 
L 187.959566 169.364848 
L 189.066343 188.4 
L 190.17312 169.364848 
L 191.279897 191.328485 
L 192.386674 175.221818 
L 193.49345 156.186667 
L 194.600227 167.900606 
L 195.707004 172.293333 
L 196.813781 160.579394 
L 197.920558 169.364848 
L 199.027335 167.900606 
L 200.134112 198.649697 
L 201.240888 173.757576 
L 202.347665 188.4 
L 203.454442 176.686061 
L 204.561219 175.221818 
L 205.667996 159.115152 
L 206.774773 185.471515 
L 207.88155 162.043636 
L 208.988326 178.150303 
L 221.162872 156.186667 
L 222.269649 185.471515 
L 223.376426 118.116364 
L 224.483202 122.509091 
L 225.589979 125.437576 
L 226.696756 164.972121 
L 227.803533 134.22303 
L 228.91031 151.793939 
L 230.017087 131.294545 
L 231.123864 181.078788 
L 232.23064 172.293333 
L 233.337417 164.972121 
L 234.444194 169.364848 
L 236.657748 181.078788 
L 237.764525 148.865455 
L 238.871302 153.258182 
L 239.978079 185.471515 
L 242.191632 150.329697 
L 243.298409 175.221818 
L 244.405186 159.115152 
L 245.511963 123.973333 
L 246.61874 178.150303 
L 247.725517 156.186667 
L 248.832293 164.972121 
L 249.93907 163.507879 
L 251.045847 170.829091 
L 252.152624 172.293333 
L 253.259401 157.650909 
L 254.366178 173.757576 
L 255.472955 169.364848 
L 256.579731 184.007273 
L 257.686508 185.471515 
L 258.793285 173.757576 
L 259.900062 179.614545 
L 261.006839 173.757576 
L 262.113616 186.935758 
L 263.220393 164.972121 
L 264.327169 184.007273 
L 265.433946 159.115152 
L 266.540723 156.186667 
L 267.6475 138.615758 
L 268.754277 182.54303 
L 269.861054 188.4 
L 270.967831 162.043636 
L 272.074607 123.973333 
L 273.181384 156.186667 
L 274.288161 184.007273 
L 275.394938 144.472727 
L 276.501715 201.578182 
L 277.608492 167.900606 
L 278.715269 201.578182 
L 279.822045 198.649697 
L 280.928822 131.294545 
L 282.035599 150.329697 
L 283.142376 145.93697 
L 284.249153 156.186667 
L 285.35593 164.972121 
L 286.462707 138.615758 
L 287.569483 145.93697 
L 288.67626 164.972121 
L 289.783037 147.401212 
L 290.889814 153.258182 
L 291.996591 163.507879 
L 293.103368 159.115152 
L 294.210145 148.865455 
L 295.316921 154.722424 
L 296.423698 159.115152 
L 298.637252 156.186667 
L 299.744029 163.507879 
L 300.850806 176.686061 
L 301.957583 163.507879 
L 303.06436 176.686061 
L 304.171136 160.579394 
L 305.277913 159.115152 
L 306.38469 135.687273 
L 307.491467 169.364848 
L 308.598244 166.436364 
L 309.705021 178.150303 
L 310.811798 145.93697 
L 311.918574 143.008485 
L 313.025351 159.115152 
L 314.132128 191.328485 
L 315.238905 178.150303 
L 316.345682 185.471515 
L 317.452459 169.364848 
L 318.559236 157.650909 
L 319.666012 172.293333 
L 320.772789 157.650909 
L 321.879566 148.865455 
L 322.986343 137.151515 
L 324.09312 186.935758 
L 325.199897 200.113939 
L 326.306674 197.185455 
L 327.41345 167.900606 
L 328.520227 163.507879 
L 329.627004 189.864242 
L 330.733781 186.935758 
L 331.840558 179.614545 
L 332.947335 103.473939 
L 334.054112 132.758788 
L 335.160888 135.687273 
L 336.267665 126.901818 
L 337.374442 132.758788 
L 338.481219 129.830303 
L 339.587996 134.22303 
L 340.694773 141.544242 
L 341.80155 132.758788 
L 342.908326 131.294545 
L 344.015103 148.865455 
L 345.12188 147.401212 
L 346.228657 144.472727 
L 347.335434 179.614545 
L 348.442211 148.865455 
L 349.548988 143.008485 
L 350.655764 148.865455 
L 351.762541 172.293333 
L 352.869318 151.793939 
L 352.869318 151.793939 
" clip-path="url(#pf4b054854e)" style="fill: none; stroke: #ff7f0e; stroke-width: 1.5; stroke-linecap: square"/>
   </g>
   <g id="patch_3">
    <path d="M 33.2875 224.64 
L 33.2875 7.2 
" style="fill: none; stroke: #000000; stroke-width: 0.8; stroke-linejoin: miter; stroke-linecap: square"/>
   </g>
   <g id="patch_4">
    <path d="M 368.0875 224.64 
L 368.0875 7.2 
" style="fill: none; stroke: #000000; stroke-width: 0.8; stroke-linejoin: miter; stroke-linecap: square"/>
   </g>
   <g id="patch_5">
    <path d="M 33.2875 224.64 
L 368.0875 224.64 
" style="fill: none; stroke: #000000; stroke-width: 0.8; stroke-linejoin: miter; stroke-linecap: square"/>
   </g>
   <g id="patch_6">
    <path d="M 33.2875 7.2 
L 368.0875 7.2 
" style="fill: none; stroke: #000000; stroke-width: 0.8; stroke-linejoin: miter; stroke-linecap: square"/>
   </g>
   <g id="legend_1">
    <g id="patch_7">
     <path d="M 40.2875 44.55625 
L 109.382813 44.55625 
Q 111.382813 44.55625 111.382813 42.55625 
L 111.382813 14.2 
Q 111.382813 12.2 109.382813 12.2 
L 40.2875 12.2 
Q 38.2875 12.2 38.2875 14.2 
L 38.2875 42.55625 
Q 38.2875 44.55625 40.2875 44.55625 
z
" style="fill: #ffffff; opacity: 0.8; stroke: #cccccc; stroke-linejoin: miter"/>
    </g>
    <g id="line2d_19">
     <path d="M 42.2875 20.298437 
L 52.2875 20.298437 
L 62.2875 20.298437 
" style="fill: none; stroke: #1f77b4; stroke-width: 1.5; stroke-linecap: square"/>
    </g>
    <g id="text_17">
     <!-- Huawei -->
     <g transform="translate(70.2875 23.798437)scale(0.1 -0.1)">
      <defs>
       <path id="DejaVuSans-48" d="M 628 4666 
L 1259 4666 
L 1259 2753 
L 3553 2753 
L 3553 4666 
L 4184 4666 
L 4184 0 
L 3553 0 
L 3553 2222 
L 1259 2222 
L 1259 0 
L 628 0 
L 628 4666 
z
" transform="scale(0.015625)"/>
       <path id="DejaVuSans-75" d="M 544 1381 
L 544 3500 
L 1119 3500 
L 1119 1403 
Q 1119 906 1312 657 
Q 1506 409 1894 409 
Q 2359 409 2629 706 
Q 2900 1003 2900 1516 
L 2900 3500 
L 3475 3500 
L 3475 0 
L 2900 0 
L 2900 538 
Q 2691 219 2414 64 
Q 2138 -91 1772 -91 
Q 1169 -91 856 284 
Q 544 659 544 1381 
z
M 1991 3584 
L 1991 3584 
z
" transform="scale(0.015625)"/>
       <path id="DejaVuSans-61" d="M 2194 1759 
Q 1497 1759 1228 1600 
Q 959 1441 959 1056 
Q 959 750 1161 570 
Q 1363 391 1709 391 
Q 2188 391 2477 730 
Q 2766 1069 2766 1631 
L 2766 1759 
L 2194 1759 
z
M 3341 1997 
L 3341 0 
L 2766 0 
L 2766 531 
Q 2569 213 2275 61 
Q 1981 -91 1556 -91 
Q 1019 -91 701 211 
Q 384 513 384 1019 
Q 384 1609 779 1909 
Q 1175 2209 1959 2209 
L 2766 2209 
L 2766 2266 
Q 2766 2663 2505 2880 
Q 2244 3097 1772 3097 
Q 1472 3097 1187 3025 
Q 903 2953 641 2809 
L 641 3341 
Q 956 3463 1253 3523 
Q 1550 3584 1831 3584 
Q 2591 3584 2966 3190 
Q 3341 2797 3341 1997 
z
" transform="scale(0.015625)"/>
       <path id="DejaVuSans-77" d="M 269 3500 
L 844 3500 
L 1563 769 
L 2278 3500 
L 2956 3500 
L 3675 769 
L 4391 3500 
L 4966 3500 
L 4050 0 
L 3372 0 
L 2619 2869 
L 1863 0 
L 1184 0 
L 269 3500 
z
" transform="scale(0.015625)"/>
       <path id="DejaVuSans-65" d="M 3597 1894 
L 3597 1613 
L 953 1613 
Q 991 1019 1311 708 
Q 1631 397 2203 397 
Q 2534 397 2845 478 
Q 3156 559 3463 722 
L 3463 178 
Q 3153 47 2828 -22 
Q 2503 -91 2169 -91 
Q 1331 -91 842 396 
Q 353 884 353 1716 
Q 353 2575 817 3079 
Q 1281 3584 2069 3584 
Q 2775 3584 3186 3129 
Q 3597 2675 3597 1894 
z
M 3022 2063 
Q 3016 2534 2758 2815 
Q 2500 3097 2075 3097 
Q 1594 3097 1305 2825 
Q 1016 2553 972 2059 
L 3022 2063 
z
" transform="scale(0.015625)"/>
       <path id="DejaVuSans-69" d="M 603 3500 
L 1178 3500 
L 1178 0 
L 603 0 
L 603 3500 
z
M 603 4863 
L 1178 4863 
L 1178 4134 
L 603 4134 
L 603 4863 
z
" transform="scale(0.015625)"/>
      </defs>
      <use xlink:href="#DejaVuSans-48"/>
      <use xlink:href="#DejaVuSans-75" x="75.195312"/>
      <use xlink:href="#DejaVuSans-61" x="138.574219"/>
      <use xlink:href="#DejaVuSans-77" x="199.853516"/>
      <use xlink:href="#DejaVuSans-65" x="281.640625"/>
      <use xlink:href="#DejaVuSans-69" x="343.164062"/>
     </g>
    </g>
    <g id="line2d_20">
     <path d="M 42.2875 34.976562 
L 52.2875 34.976562 
L 62.2875 34.976562 
" style="fill: none; stroke: #ff7f0e; stroke-width: 1.5; stroke-linecap: square"/>
    </g>
    <g id="text_18">
     <!-- E66 -->
     <g transform="translate(70.2875 38.476562)scale(0.1 -0.1)">
      <defs>
       <path id="DejaVuSans-45" d="M 628 4666 
L 3578 4666 
L 3578 4134 
L 1259 4134 
L 1259 2753 
L 3481 2753 
L 3481 2222 
L 1259 2222 
L 1259 531 
L 3634 531 
L 3634 0 
L 628 0 
L 628 4666 
z
" transform="scale(0.015625)"/>
      </defs>
      <use xlink:href="#DejaVuSans-45"/>
      <use xlink:href="#DejaVuSans-36" x="63.183594"/>
      <use xlink:href="#DejaVuSans-36" x="126.806641"/>
     </g>
    </g>
   </g>
  </g>
 </g>
 <defs>
  <clipPath id="pf4b054854e">
   <rect x="33.2875" y="7.2" width="334.8" height="217.44"/>
  </clipPath>
 </defs>
</svg>
