<?xml version="1.0" encoding="utf-8" standalone="no"?>
<!DOCTYPE svg PUBLIC "-//W3C//DTD SVG 1.1//EN"
  "http://www.w3.org/Graphics/SVG/1.1/DTD/svg11.dtd">
<svg xmlns:xlink="http://www.w3.org/1999/xlink" width="377.979711pt" height="261.780096pt" viewBox="0 0 377.979711 261.780096" xmlns="http://www.w3.org/2000/svg" version="1.1">
 <metadata>
  <rdf:RDF xmlns:dc="http://purl.org/dc/elements/1.1/" xmlns:cc="http://creativecommons.org/ns#" xmlns:rdf="http://www.w3.org/1999/02/22-rdf-syntax-ns#">
   <cc:Work>
    <dc:type rdf:resource="http://purl.org/dc/dcmitype/StillImage"/>
    <dc:date>2022-06-08T14:50:09.615157</dc:date>
    <dc:format>image/svg+xml</dc:format>
    <dc:creator>
     <cc:Agent>
      <dc:title>Matplotlib v3.5.2, https://matplotlib.org/</dc:title>
     </cc:Agent>
    </dc:creator>
   </cc:Work>
  </rdf:RDF>
 </metadata>
 <defs>
  <style type="text/css">*{stroke-linejoin: round; stroke-linecap: butt}</style>
 </defs>
 <g id="figure_1">
  <g id="patch_1">
   <path d="M 0 261.780096 
L 377.979711 261.780096 
L 377.979711 0 
L 0 0 
L 0 261.780096 
z
" style="fill: none"/>
  </g>
  <g id="axes_1">
   <g id="patch_2">
    <path d="M 35.979711 203.04 
L 370.779711 203.04 
L 370.779711 7.2 
L 35.979711 7.2 
z
" style="fill: #ffffff"/>
   </g>
   <g id="matplotlib.axis_1">
    <g id="xtick_1">
     <g id="line2d_1">
      <defs>
       <path id="mb5d011a977" d="M 0 0 
L 0 3.5 
" style="stroke: #000000; stroke-width: 0.8"/>
      </defs>
      <g>
       <use xlink:href="#mb5d011a977" x="50.976377" y="203.04" style="stroke: #000000; stroke-width: 0.8"/>
      </g>
     </g>
     <g id="text_1">
      <!-- 05-18 00 -->
      <g transform="translate(10.999219 239.100909)rotate(-30)scale(0.1 -0.1)">
       <defs>
        <path id="DejaVuSans-30" d="M 2034 4250 
Q 1547 4250 1301 3770 
Q 1056 3291 1056 2328 
Q 1056 1369 1301 889 
Q 1547 409 2034 409 
Q 2525 409 2770 889 
Q 3016 1369 3016 2328 
Q 3016 3291 2770 3770 
Q 2525 4250 2034 4250 
z
M 2034 4750 
Q 2819 4750 3233 4129 
Q 3647 3509 3647 2328 
Q 3647 1150 3233 529 
Q 2819 -91 2034 -91 
Q 1250 -91 836 529 
Q 422 1150 422 2328 
Q 422 3509 836 4129 
Q 1250 4750 2034 4750 
z
" transform="scale(0.015625)"/>
        <path id="DejaVuSans-35" d="M 691 4666 
L 3169 4666 
L 3169 4134 
L 1269 4134 
L 1269 2991 
Q 1406 3038 1543 3061 
Q 1681 3084 1819 3084 
Q 2600 3084 3056 2656 
Q 3513 2228 3513 1497 
Q 3513 744 3044 326 
Q 2575 -91 1722 -91 
Q 1428 -91 1123 -41 
Q 819 9 494 109 
L 494 744 
Q 775 591 1075 516 
Q 1375 441 1709 441 
Q 2250 441 2565 725 
Q 2881 1009 2881 1497 
Q 2881 1984 2565 2268 
Q 2250 2553 1709 2553 
Q 1456 2553 1204 2497 
Q 953 2441 691 2322 
L 691 4666 
z
" transform="scale(0.015625)"/>
        <path id="DejaVuSans-2d" d="M 313 2009 
L 1997 2009 
L 1997 1497 
L 313 1497 
L 313 2009 
z
" transform="scale(0.015625)"/>
        <path id="DejaVuSans-31" d="M 794 531 
L 1825 531 
L 1825 4091 
L 703 3866 
L 703 4441 
L 1819 4666 
L 2450 4666 
L 2450 531 
L 3481 531 
L 3481 0 
L 794 0 
L 794 531 
z
" transform="scale(0.015625)"/>
        <path id="DejaVuSans-38" d="M 2034 2216 
Q 1584 2216 1326 1975 
Q 1069 1734 1069 1313 
Q 1069 891 1326 650 
Q 1584 409 2034 409 
Q 2484 409 2743 651 
Q 3003 894 3003 1313 
Q 3003 1734 2745 1975 
Q 2488 2216 2034 2216 
z
M 1403 2484 
Q 997 2584 770 2862 
Q 544 3141 544 3541 
Q 544 4100 942 4425 
Q 1341 4750 2034 4750 
Q 2731 4750 3128 4425 
Q 3525 4100 3525 3541 
Q 3525 3141 3298 2862 
Q 3072 2584 2669 2484 
Q 3125 2378 3379 2068 
Q 3634 1759 3634 1313 
Q 3634 634 3220 271 
Q 2806 -91 2034 -91 
Q 1263 -91 848 271 
Q 434 634 434 1313 
Q 434 1759 690 2068 
Q 947 2378 1403 2484 
z
M 1172 3481 
Q 1172 3119 1398 2916 
Q 1625 2713 2034 2713 
Q 2441 2713 2670 2916 
Q 2900 3119 2900 3481 
Q 2900 3844 2670 4047 
Q 2441 4250 2034 4250 
Q 1625 4250 1398 4047 
Q 1172 3844 1172 3481 
z
" transform="scale(0.015625)"/>
        <path id="DejaVuSans-20" transform="scale(0.015625)"/>
       </defs>
       <use xlink:href="#DejaVuSans-30"/>
       <use xlink:href="#DejaVuSans-35" x="63.623047"/>
       <use xlink:href="#DejaVuSans-2d" x="127.246094"/>
       <use xlink:href="#DejaVuSans-31" x="163.330078"/>
       <use xlink:href="#DejaVuSans-38" x="226.953125"/>
       <use xlink:href="#DejaVuSans-20" x="290.576172"/>
       <use xlink:href="#DejaVuSans-30" x="322.363281"/>
       <use xlink:href="#DejaVuSans-30" x="385.986328"/>
      </g>
     </g>
    </g>
    <g id="xtick_2">
     <g id="line2d_2">
      <g>
       <use xlink:href="#mb5d011a977" x="90.849342" y="203.04" style="stroke: #000000; stroke-width: 0.8"/>
      </g>
     </g>
     <g id="text_2">
      <!-- 05-18 03 -->
      <g transform="translate(50.872184 239.100909)rotate(-30)scale(0.1 -0.1)">
       <defs>
        <path id="DejaVuSans-33" d="M 2597 2516 
Q 3050 2419 3304 2112 
Q 3559 1806 3559 1356 
Q 3559 666 3084 287 
Q 2609 -91 1734 -91 
Q 1441 -91 1130 -33 
Q 819 25 488 141 
L 488 750 
Q 750 597 1062 519 
Q 1375 441 1716 441 
Q 2309 441 2620 675 
Q 2931 909 2931 1356 
Q 2931 1769 2642 2001 
Q 2353 2234 1838 2234 
L 1294 2234 
L 1294 2753 
L 1863 2753 
Q 2328 2753 2575 2939 
Q 2822 3125 2822 3475 
Q 2822 3834 2567 4026 
Q 2313 4219 1838 4219 
Q 1578 4219 1281 4162 
Q 984 4106 628 3988 
L 628 4550 
Q 988 4650 1302 4700 
Q 1616 4750 1894 4750 
Q 2613 4750 3031 4423 
Q 3450 4097 3450 3541 
Q 3450 3153 3228 2886 
Q 3006 2619 2597 2516 
z
" transform="scale(0.015625)"/>
       </defs>
       <use xlink:href="#DejaVuSans-30"/>
       <use xlink:href="#DejaVuSans-35" x="63.623047"/>
       <use xlink:href="#DejaVuSans-2d" x="127.246094"/>
       <use xlink:href="#DejaVuSans-31" x="163.330078"/>
       <use xlink:href="#DejaVuSans-38" x="226.953125"/>
       <use xlink:href="#DejaVuSans-20" x="290.576172"/>
       <use xlink:href="#DejaVuSans-30" x="322.363281"/>
       <use xlink:href="#DejaVuSans-33" x="385.986328"/>
      </g>
     </g>
    </g>
    <g id="xtick_3">
     <g id="line2d_3">
      <g>
       <use xlink:href="#mb5d011a977" x="130.722307" y="203.04" style="stroke: #000000; stroke-width: 0.8"/>
      </g>
     </g>
     <g id="text_3">
      <!-- 05-18 06 -->
      <g transform="translate(90.74515 239.100909)rotate(-30)scale(0.1 -0.1)">
       <defs>
        <path id="DejaVuSans-36" d="M 2113 2584 
Q 1688 2584 1439 2293 
Q 1191 2003 1191 1497 
Q 1191 994 1439 701 
Q 1688 409 2113 409 
Q 2538 409 2786 701 
Q 3034 994 3034 1497 
Q 3034 2003 2786 2293 
Q 2538 2584 2113 2584 
z
M 3366 4563 
L 3366 3988 
Q 3128 4100 2886 4159 
Q 2644 4219 2406 4219 
Q 1781 4219 1451 3797 
Q 1122 3375 1075 2522 
Q 1259 2794 1537 2939 
Q 1816 3084 2150 3084 
Q 2853 3084 3261 2657 
Q 3669 2231 3669 1497 
Q 3669 778 3244 343 
Q 2819 -91 2113 -91 
Q 1303 -91 875 529 
Q 447 1150 447 2328 
Q 447 3434 972 4092 
Q 1497 4750 2381 4750 
Q 2619 4750 2861 4703 
Q 3103 4656 3366 4563 
z
" transform="scale(0.015625)"/>
       </defs>
       <use xlink:href="#DejaVuSans-30"/>
       <use xlink:href="#DejaVuSans-35" x="63.623047"/>
       <use xlink:href="#DejaVuSans-2d" x="127.246094"/>
       <use xlink:href="#DejaVuSans-31" x="163.330078"/>
       <use xlink:href="#DejaVuSans-38" x="226.953125"/>
       <use xlink:href="#DejaVuSans-20" x="290.576172"/>
       <use xlink:href="#DejaVuSans-30" x="322.363281"/>
       <use xlink:href="#DejaVuSans-36" x="385.986328"/>
      </g>
     </g>
    </g>
    <g id="xtick_4">
     <g id="line2d_4">
      <g>
       <use xlink:href="#mb5d011a977" x="170.595273" y="203.04" style="stroke: #000000; stroke-width: 0.8"/>
      </g>
     </g>
     <g id="text_4">
      <!-- 05-18 09 -->
      <g transform="translate(130.618115 239.100909)rotate(-30)scale(0.1 -0.1)">
       <defs>
        <path id="DejaVuSans-39" d="M 703 97 
L 703 672 
Q 941 559 1184 500 
Q 1428 441 1663 441 
Q 2288 441 2617 861 
Q 2947 1281 2994 2138 
Q 2813 1869 2534 1725 
Q 2256 1581 1919 1581 
Q 1219 1581 811 2004 
Q 403 2428 403 3163 
Q 403 3881 828 4315 
Q 1253 4750 1959 4750 
Q 2769 4750 3195 4129 
Q 3622 3509 3622 2328 
Q 3622 1225 3098 567 
Q 2575 -91 1691 -91 
Q 1453 -91 1209 -44 
Q 966 3 703 97 
z
M 1959 2075 
Q 2384 2075 2632 2365 
Q 2881 2656 2881 3163 
Q 2881 3666 2632 3958 
Q 2384 4250 1959 4250 
Q 1534 4250 1286 3958 
Q 1038 3666 1038 3163 
Q 1038 2656 1286 2365 
Q 1534 2075 1959 2075 
z
" transform="scale(0.015625)"/>
       </defs>
       <use xlink:href="#DejaVuSans-30"/>
       <use xlink:href="#DejaVuSans-35" x="63.623047"/>
       <use xlink:href="#DejaVuSans-2d" x="127.246094"/>
       <use xlink:href="#DejaVuSans-31" x="163.330078"/>
       <use xlink:href="#DejaVuSans-38" x="226.953125"/>
       <use xlink:href="#DejaVuSans-20" x="290.576172"/>
       <use xlink:href="#DejaVuSans-30" x="322.363281"/>
       <use xlink:href="#DejaVuSans-39" x="385.986328"/>
      </g>
     </g>
    </g>
    <g id="xtick_5">
     <g id="line2d_5">
      <g>
       <use xlink:href="#mb5d011a977" x="210.468238" y="203.04" style="stroke: #000000; stroke-width: 0.8"/>
      </g>
     </g>
     <g id="text_5">
      <!-- 05-18 12 -->
      <g transform="translate(170.491081 239.100909)rotate(-30)scale(0.1 -0.1)">
       <defs>
        <path id="DejaVuSans-32" d="M 1228 531 
L 3431 531 
L 3431 0 
L 469 0 
L 469 531 
Q 828 903 1448 1529 
Q 2069 2156 2228 2338 
Q 2531 2678 2651 2914 
Q 2772 3150 2772 3378 
Q 2772 3750 2511 3984 
Q 2250 4219 1831 4219 
Q 1534 4219 1204 4116 
Q 875 4013 500 3803 
L 500 4441 
Q 881 4594 1212 4672 
Q 1544 4750 1819 4750 
Q 2544 4750 2975 4387 
Q 3406 4025 3406 3419 
Q 3406 3131 3298 2873 
Q 3191 2616 2906 2266 
Q 2828 2175 2409 1742 
Q 1991 1309 1228 531 
z
" transform="scale(0.015625)"/>
       </defs>
       <use xlink:href="#DejaVuSans-30"/>
       <use xlink:href="#DejaVuSans-35" x="63.623047"/>
       <use xlink:href="#DejaVuSans-2d" x="127.246094"/>
       <use xlink:href="#DejaVuSans-31" x="163.330078"/>
       <use xlink:href="#DejaVuSans-38" x="226.953125"/>
       <use xlink:href="#DejaVuSans-20" x="290.576172"/>
       <use xlink:href="#DejaVuSans-31" x="322.363281"/>
       <use xlink:href="#DejaVuSans-32" x="385.986328"/>
      </g>
     </g>
    </g>
    <g id="xtick_6">
     <g id="line2d_6">
      <g>
       <use xlink:href="#mb5d011a977" x="250.341204" y="203.04" style="stroke: #000000; stroke-width: 0.8"/>
      </g>
     </g>
     <g id="text_6">
      <!-- 05-18 15 -->
      <g transform="translate(210.364046 239.100909)rotate(-30)scale(0.1 -0.1)">
       <use xlink:href="#DejaVuSans-30"/>
       <use xlink:href="#DejaVuSans-35" x="63.623047"/>
       <use xlink:href="#DejaVuSans-2d" x="127.246094"/>
       <use xlink:href="#DejaVuSans-31" x="163.330078"/>
       <use xlink:href="#DejaVuSans-38" x="226.953125"/>
       <use xlink:href="#DejaVuSans-20" x="290.576172"/>
       <use xlink:href="#DejaVuSans-31" x="322.363281"/>
       <use xlink:href="#DejaVuSans-35" x="385.986328"/>
      </g>
     </g>
    </g>
    <g id="xtick_7">
     <g id="line2d_7">
      <g>
       <use xlink:href="#mb5d011a977" x="290.214169" y="203.04" style="stroke: #000000; stroke-width: 0.8"/>
      </g>
     </g>
     <g id="text_7">
      <!-- 05-18 18 -->
      <g transform="translate(250.237012 239.100909)rotate(-30)scale(0.1 -0.1)">
       <use xlink:href="#DejaVuSans-30"/>
       <use xlink:href="#DejaVuSans-35" x="63.623047"/>
       <use xlink:href="#DejaVuSans-2d" x="127.246094"/>
       <use xlink:href="#DejaVuSans-31" x="163.330078"/>
       <use xlink:href="#DejaVuSans-38" x="226.953125"/>
       <use xlink:href="#DejaVuSans-20" x="290.576172"/>
       <use xlink:href="#DejaVuSans-31" x="322.363281"/>
       <use xlink:href="#DejaVuSans-38" x="385.986328"/>
      </g>
     </g>
    </g>
    <g id="xtick_8">
     <g id="line2d_8">
      <g>
       <use xlink:href="#mb5d011a977" x="330.087135" y="203.04" style="stroke: #000000; stroke-width: 0.8"/>
      </g>
     </g>
     <g id="text_8">
      <!-- 05-18 21 -->
      <g transform="translate(290.109977 239.100909)rotate(-30)scale(0.1 -0.1)">
       <use xlink:href="#DejaVuSans-30"/>
       <use xlink:href="#DejaVuSans-35" x="63.623047"/>
       <use xlink:href="#DejaVuSans-2d" x="127.246094"/>
       <use xlink:href="#DejaVuSans-31" x="163.330078"/>
       <use xlink:href="#DejaVuSans-38" x="226.953125"/>
       <use xlink:href="#DejaVuSans-20" x="290.576172"/>
       <use xlink:href="#DejaVuSans-32" x="322.363281"/>
       <use xlink:href="#DejaVuSans-31" x="385.986328"/>
      </g>
     </g>
    </g>
    <g id="xtick_9">
     <g id="line2d_9">
      <g>
       <use xlink:href="#mb5d011a977" x="369.9601" y="203.04" style="stroke: #000000; stroke-width: 0.8"/>
      </g>
     </g>
     <g id="text_9">
      <!-- 05-19 00 -->
      <g transform="translate(329.982942 239.100909)rotate(-30)scale(0.1 -0.1)">
       <use xlink:href="#DejaVuSans-30"/>
       <use xlink:href="#DejaVuSans-35" x="63.623047"/>
       <use xlink:href="#DejaVuSans-2d" x="127.246094"/>
       <use xlink:href="#DejaVuSans-31" x="163.330078"/>
       <use xlink:href="#DejaVuSans-39" x="226.953125"/>
       <use xlink:href="#DejaVuSans-20" x="290.576172"/>
       <use xlink:href="#DejaVuSans-30" x="322.363281"/>
       <use xlink:href="#DejaVuSans-30" x="385.986328"/>
      </g>
     </g>
    </g>
    <g id="text_10">
     <!-- time -->
     <g transform="translate(192.083617 252.500408)scale(0.1 -0.1)">
      <defs>
       <path id="DejaVuSans-74" d="M 1172 4494 
L 1172 3500 
L 2356 3500 
L 2356 3053 
L 1172 3053 
L 1172 1153 
Q 1172 725 1289 603 
Q 1406 481 1766 481 
L 2356 481 
L 2356 0 
L 1766 0 
Q 1100 0 847 248 
Q 594 497 594 1153 
L 594 3053 
L 172 3053 
L 172 3500 
L 594 3500 
L 594 4494 
L 1172 4494 
z
" transform="scale(0.015625)"/>
       <path id="DejaVuSans-69" d="M 603 3500 
L 1178 3500 
L 1178 0 
L 603 0 
L 603 3500 
z
M 603 4863 
L 1178 4863 
L 1178 4134 
L 603 4134 
L 603 4863 
z
" transform="scale(0.015625)"/>
       <path id="DejaVuSans-6d" d="M 3328 2828 
Q 3544 3216 3844 3400 
Q 4144 3584 4550 3584 
Q 5097 3584 5394 3201 
Q 5691 2819 5691 2113 
L 5691 0 
L 5113 0 
L 5113 2094 
Q 5113 2597 4934 2840 
Q 4756 3084 4391 3084 
Q 3944 3084 3684 2787 
Q 3425 2491 3425 1978 
L 3425 0 
L 2847 0 
L 2847 2094 
Q 2847 2600 2669 2842 
Q 2491 3084 2119 3084 
Q 1678 3084 1418 2786 
Q 1159 2488 1159 1978 
L 1159 0 
L 581 0 
L 581 3500 
L 1159 3500 
L 1159 2956 
Q 1356 3278 1631 3431 
Q 1906 3584 2284 3584 
Q 2666 3584 2933 3390 
Q 3200 3197 3328 2828 
z
" transform="scale(0.015625)"/>
       <path id="DejaVuSans-65" d="M 3597 1894 
L 3597 1613 
L 953 1613 
Q 991 1019 1311 708 
Q 1631 397 2203 397 
Q 2534 397 2845 478 
Q 3156 559 3463 722 
L 3463 178 
Q 3153 47 2828 -22 
Q 2503 -91 2169 -91 
Q 1331 -91 842 396 
Q 353 884 353 1716 
Q 353 2575 817 3079 
Q 1281 3584 2069 3584 
Q 2775 3584 3186 3129 
Q 3597 2675 3597 1894 
z
M 3022 2063 
Q 3016 2534 2758 2815 
Q 2500 3097 2075 3097 
Q 1594 3097 1305 2825 
Q 1016 2553 972 2059 
L 3022 2063 
z
" transform="scale(0.015625)"/>
      </defs>
      <use xlink:href="#DejaVuSans-74"/>
      <use xlink:href="#DejaVuSans-69" x="39.208984"/>
      <use xlink:href="#DejaVuSans-6d" x="66.992188"/>
      <use xlink:href="#DejaVuSans-65" x="164.404297"/>
     </g>
    </g>
   </g>
   <g id="matplotlib.axis_2">
    <g id="ytick_1">
     <g id="line2d_10">
      <defs>
       <path id="mf2283b898f" d="M 0 0 
L -3.5 0 
" style="stroke: #000000; stroke-width: 0.8"/>
      </defs>
      <g>
       <use xlink:href="#mf2283b898f" x="35.979711" y="197.821693" style="stroke: #000000; stroke-width: 0.8"/>
      </g>
     </g>
     <g id="text_11">
      <!-- 40 -->
      <g transform="translate(16.254711 201.620912)scale(0.1 -0.1)">
       <defs>
        <path id="DejaVuSans-34" d="M 2419 4116 
L 825 1625 
L 2419 1625 
L 2419 4116 
z
M 2253 4666 
L 3047 4666 
L 3047 1625 
L 3713 1625 
L 3713 1100 
L 3047 1100 
L 3047 0 
L 2419 0 
L 2419 1100 
L 313 1100 
L 313 1709 
L 2253 4666 
z
" transform="scale(0.015625)"/>
       </defs>
       <use xlink:href="#DejaVuSans-34"/>
       <use xlink:href="#DejaVuSans-30" x="63.623047"/>
      </g>
     </g>
    </g>
    <g id="ytick_2">
     <g id="line2d_11">
      <g>
       <use xlink:href="#mf2283b898f" x="35.979711" y="173.264953" style="stroke: #000000; stroke-width: 0.8"/>
      </g>
     </g>
     <g id="text_12">
      <!-- 60 -->
      <g transform="translate(16.254711 177.064172)scale(0.1 -0.1)">
       <use xlink:href="#DejaVuSans-36"/>
       <use xlink:href="#DejaVuSans-30" x="63.623047"/>
      </g>
     </g>
    </g>
    <g id="ytick_3">
     <g id="line2d_12">
      <g>
       <use xlink:href="#mf2283b898f" x="35.979711" y="148.708213" style="stroke: #000000; stroke-width: 0.8"/>
      </g>
     </g>
     <g id="text_13">
      <!-- 80 -->
      <g transform="translate(16.254711 152.507432)scale(0.1 -0.1)">
       <use xlink:href="#DejaVuSans-38"/>
       <use xlink:href="#DejaVuSans-30" x="63.623047"/>
      </g>
     </g>
    </g>
    <g id="ytick_4">
     <g id="line2d_13">
      <g>
       <use xlink:href="#mf2283b898f" x="35.979711" y="124.151473" style="stroke: #000000; stroke-width: 0.8"/>
      </g>
     </g>
     <g id="text_14">
      <!-- 100 -->
      <g transform="translate(9.892211 127.950692)scale(0.1 -0.1)">
       <use xlink:href="#DejaVuSans-31"/>
       <use xlink:href="#DejaVuSans-30" x="63.623047"/>
       <use xlink:href="#DejaVuSans-30" x="127.246094"/>
      </g>
     </g>
    </g>
    <g id="ytick_5">
     <g id="line2d_14">
      <g>
       <use xlink:href="#mf2283b898f" x="35.979711" y="99.594734" style="stroke: #000000; stroke-width: 0.8"/>
      </g>
     </g>
     <g id="text_15">
      <!-- 120 -->
      <g transform="translate(9.892211 103.393952)scale(0.1 -0.1)">
       <use xlink:href="#DejaVuSans-31"/>
       <use xlink:href="#DejaVuSans-32" x="63.623047"/>
       <use xlink:href="#DejaVuSans-30" x="127.246094"/>
      </g>
     </g>
    </g>
    <g id="ytick_6">
     <g id="line2d_15">
      <g>
       <use xlink:href="#mf2283b898f" x="35.979711" y="75.037994" style="stroke: #000000; stroke-width: 0.8"/>
      </g>
     </g>
     <g id="text_16">
      <!-- 140 -->
      <g transform="translate(9.892211 78.837212)scale(0.1 -0.1)">
       <use xlink:href="#DejaVuSans-31"/>
       <use xlink:href="#DejaVuSans-34" x="63.623047"/>
       <use xlink:href="#DejaVuSans-30" x="127.246094"/>
      </g>
     </g>
    </g>
    <g id="ytick_7">
     <g id="line2d_16">
      <g>
       <use xlink:href="#mf2283b898f" x="35.979711" y="50.481254" style="stroke: #000000; stroke-width: 0.8"/>
      </g>
     </g>
     <g id="text_17">
      <!-- 160 -->
      <g transform="translate(9.892211 54.280473)scale(0.1 -0.1)">
       <use xlink:href="#DejaVuSans-31"/>
       <use xlink:href="#DejaVuSans-36" x="63.623047"/>
       <use xlink:href="#DejaVuSans-30" x="127.246094"/>
      </g>
     </g>
    </g>
    <g id="ytick_8">
     <g id="line2d_17">
      <g>
       <use xlink:href="#mf2283b898f" x="35.979711" y="25.924514" style="stroke: #000000; stroke-width: 0.8"/>
      </g>
     </g>
     <g id="text_18">
      <!-- 180 -->
      <g transform="translate(9.892211 29.723733)scale(0.1 -0.1)">
       <use xlink:href="#DejaVuSans-31"/>
       <use xlink:href="#DejaVuSans-38" x="63.623047"/>
       <use xlink:href="#DejaVuSans-30" x="127.246094"/>
      </g>
     </g>
    </g>
   </g>
   <g id="line2d_18">
    <path d="M 51.197893 137.65768 
L 51.41941 147.480376 
L 51.640926 135.202006 
L 51.862442 147.480376 
L 52.083959 151.163887 
L 52.305475 157.303072 
L 52.748508 140.113354 
L 52.970025 124.151473 
L 53.191541 124.151473 
L 53.413058 120.467962 
L 53.634574 142.569028 
L 53.856091 151.163887 
L 54.077607 152.391724 
L 54.299124 151.163887 
L 54.52064 138.885517 
L 54.742157 149.93605 
L 54.963673 146.252539 
L 55.18519 152.391724 
L 55.406706 132.746332 
L 55.628223 153.619561 
L 56.071255 147.480376 
L 56.292772 137.65768 
L 56.514288 153.619561 
L 56.735805 146.252539 
L 56.957321 149.93605 
L 57.178838 151.163887 
L 57.400354 154.847398 
L 58.064904 148.708213 
L 58.28642 138.885517 
L 58.729453 148.708213 
L 58.95097 136.429843 
L 59.394003 146.252539 
L 59.615519 149.93605 
L 59.837036 149.93605 
L 60.058552 159.758746 
L 60.280068 160.986583 
L 60.501585 160.986583 
L 60.723101 169.581442 
L 60.944618 164.670094 
L 61.166134 172.037116 
L 61.387651 173.264953 
L 61.609167 168.353605 
L 61.830684 175.720627 
L 62.0522 168.353605 
L 62.273717 165.897931 
L 62.495233 165.897931 
L 62.71675 157.303072 
L 62.938266 167.125768 
L 63.159783 168.353605 
L 63.381299 168.353605 
L 63.602816 169.581442 
L 64.045849 154.847398 
L 64.267365 163.442257 
L 64.710398 165.897931 
L 64.931914 151.163887 
L 65.153431 163.442257 
L 65.374947 154.847398 
L 65.596464 159.758746 
L 65.81798 173.264953 
L 66.039497 160.986583 
L 66.261013 160.986583 
L 66.48253 159.758746 
L 66.704046 167.125768 
L 66.925563 154.847398 
L 67.147079 165.897931 
L 67.368596 159.758746 
L 67.590112 169.581442 
L 67.811629 169.581442 
L 68.033145 163.442257 
L 68.254662 170.809279 
L 68.697695 156.075235 
L 69.140727 169.581442 
L 69.362244 158.530909 
L 69.58376 154.847398 
L 69.805277 158.530909 
L 70.026793 153.619561 
L 70.24831 163.442257 
L 70.469826 159.758746 
L 70.691343 151.163887 
L 70.912859 157.303072 
L 71.134376 157.303072 
L 71.355892 159.758746 
L 71.577409 159.758746 
L 71.798925 164.670094 
L 72.020442 178.176301 
L 72.241958 165.897931 
L 72.463475 174.49279 
L 72.906508 162.21442 
L 73.128024 154.847398 
L 73.349541 165.897931 
L 73.571057 157.303072 
L 74.01409 168.353605 
L 74.235606 156.075235 
L 74.678639 162.21442 
L 75.121672 167.125768 
L 75.343189 162.21442 
L 75.786222 169.581442 
L 76.007738 165.897931 
L 76.229255 165.897931 
L 76.450771 167.125768 
L 76.672288 165.897931 
L 76.893804 169.581442 
L 77.115321 168.353605 
L 77.336837 170.809279 
L 77.77987 167.125768 
L 78.001386 167.125768 
L 78.444419 164.670094 
L 78.665936 164.670094 
L 78.887452 163.442257 
L 79.330485 167.125768 
L 79.552002 165.897931 
L 79.995035 168.353605 
L 80.216551 164.670094 
L 80.438068 165.897931 
L 80.659584 165.897931 
L 80.881101 167.125768 
L 81.102617 164.670094 
L 81.324134 165.897931 
L 81.54565 164.670094 
L 81.767167 164.670094 
L 81.988683 168.353605 
L 82.210199 164.670094 
L 82.431716 163.442257 
L 82.653232 164.670094 
L 82.874749 163.442257 
L 83.096265 163.442257 
L 83.317782 164.670094 
L 83.539298 163.442257 
L 83.760815 163.442257 
L 83.982331 167.125768 
L 84.203848 164.670094 
L 84.425364 168.353605 
L 84.646881 164.670094 
L 84.868397 167.125768 
L 85.089914 164.670094 
L 85.31143 167.125768 
L 85.532947 164.670094 
L 85.754463 159.758746 
L 85.97598 173.264953 
L 86.197496 168.353605 
L 86.419013 178.176301 
L 86.640529 180.631975 
L 87.083562 169.581442 
L 87.526595 186.77116 
L 87.748111 173.264953 
L 87.969628 175.720627 
L 88.191144 173.264953 
L 88.412661 178.176301 
L 88.634177 173.264953 
L 88.855694 173.264953 
L 89.07721 170.809279 
L 89.298727 175.720627 
L 89.520243 169.581442 
L 89.74176 168.353605 
L 89.963276 165.897931 
L 90.184793 174.49279 
L 90.406309 168.353605 
L 90.627826 173.264953 
L 90.849342 174.49279 
L 91.070858 165.897931 
L 91.513891 180.631975 
L 91.735408 173.264953 
L 91.956924 173.264953 
L 92.178441 175.720627 
L 92.399957 172.037116 
L 92.621474 178.176301 
L 92.84299 176.948464 
L 93.064507 183.087649 
L 93.286023 178.176301 
L 93.50754 178.176301 
L 93.729056 187.998997 
L 93.950573 180.631975 
L 94.172089 178.176301 
L 94.393606 179.404138 
L 94.836639 183.087649 
L 95.058155 178.176301 
L 95.279672 168.353605 
L 95.501188 181.859812 
L 95.722704 178.176301 
L 95.944221 180.631975 
L 96.165737 185.543323 
L 96.387254 179.404138 
L 96.60877 181.859812 
L 96.830287 180.631975 
L 97.051803 189.226834 
L 97.27332 180.631975 
L 97.494836 180.631975 
L 97.716353 187.998997 
L 97.937869 181.859812 
L 98.159386 183.087649 
L 98.380902 180.631975 
L 98.602419 181.859812 
L 98.823935 181.859812 
L 99.045452 184.315486 
L 99.266968 183.087649 
L 99.488485 183.087649 
L 99.710001 186.77116 
L 99.931517 185.543323 
L 100.37455 181.859812 
L 100.596067 183.087649 
L 100.817583 181.859812 
L 101.0391 183.087649 
L 101.260616 186.77116 
L 101.482133 184.315486 
L 101.703649 186.77116 
L 101.925166 184.315486 
L 102.146682 184.315486 
L 102.368199 183.087649 
L 102.589715 168.353605 
L 103.032748 181.859812 
L 103.254265 159.758746 
L 103.475781 179.404138 
L 103.697298 179.404138 
L 103.918814 185.543323 
L 104.140331 178.176301 
L 104.361847 159.758746 
L 104.583363 184.315486 
L 104.80488 181.859812 
L 105.026396 176.948464 
L 105.469429 176.948464 
L 105.912462 172.037116 
L 106.133979 172.037116 
L 106.355495 174.49279 
L 106.577012 173.264953 
L 106.798528 167.125768 
L 107.020045 164.670094 
L 107.241561 168.353605 
L 107.463078 167.125768 
L 107.906111 160.986583 
L 108.349144 170.809279 
L 108.57066 167.125768 
L 108.792176 172.037116 
L 109.013693 167.125768 
L 109.235209 168.353605 
L 109.899759 154.847398 
L 110.342792 178.176301 
L 110.564308 173.264953 
L 110.785825 183.087649 
L 111.007341 178.176301 
L 111.228858 178.176301 
L 111.450374 176.948464 
L 111.671891 174.49279 
L 111.893407 174.49279 
L 112.114924 168.353605 
L 112.33644 176.948464 
L 112.557957 168.353605 
L 112.779473 167.125768 
L 113.000989 160.986583 
L 113.222506 175.720627 
L 113.665539 163.442257 
L 114.108572 170.809279 
L 114.330088 167.125768 
L 114.551605 169.581442 
L 114.773121 163.442257 
L 114.994638 164.670094 
L 115.216154 168.353605 
L 115.437671 167.125768 
L 115.659187 168.353605 
L 115.880704 174.49279 
L 116.10222 167.125768 
L 116.323737 175.720627 
L 116.545253 168.353605 
L 116.76677 167.125768 
L 116.988286 174.49279 
L 117.431319 165.897931 
L 117.652835 169.581442 
L 117.874352 147.480376 
L 118.095868 176.948464 
L 118.317385 169.581442 
L 118.981934 176.948464 
L 119.203451 174.49279 
L 119.424967 175.720627 
L 119.646484 173.264953 
L 120.089517 176.948464 
L 120.311033 176.948464 
L 120.53255 178.176301 
L 120.975583 175.720627 
L 121.640132 175.720627 
L 121.861648 178.176301 
L 122.083165 175.720627 
L 122.304681 179.404138 
L 122.526198 178.176301 
L 122.747714 178.176301 
L 123.190747 175.720627 
L 123.412264 181.859812 
L 123.63378 178.176301 
L 123.855297 178.176301 
L 124.076813 179.404138 
L 124.29833 179.404138 
L 124.519846 184.315486 
L 124.741363 180.631975 
L 124.962879 180.631975 
L 125.184396 184.315486 
L 125.627429 180.631975 
L 125.848945 181.859812 
L 126.070462 179.404138 
L 126.291978 180.631975 
L 126.735011 184.315486 
L 126.956527 183.087649 
L 127.178044 173.264953 
L 127.39956 172.037116 
L 127.621077 183.087649 
L 127.842593 183.087649 
L 128.06411 180.631975 
L 128.507143 183.087649 
L 128.728659 180.631975 
L 128.950176 180.631975 
L 129.171692 179.404138 
L 129.393209 183.087649 
L 129.614725 179.404138 
L 130.057758 176.948464 
L 130.943824 181.859812 
L 131.16534 180.631975 
L 131.386857 180.631975 
L 131.608373 181.859812 
L 131.82989 191.682508 
L 132.051406 192.910345 
L 132.272923 186.77116 
L 132.494439 187.998997 
L 132.715956 186.77116 
L 133.380505 186.77116 
L 133.602022 185.543323 
L 133.823538 183.087649 
L 134.045055 184.315486 
L 134.266571 181.859812 
L 134.488088 175.720627 
L 134.709604 183.087649 
L 134.93112 184.315486 
L 135.152637 174.49279 
L 135.374153 183.087649 
L 135.59567 183.087649 
L 135.817186 180.631975 
L 136.038703 181.859812 
L 136.260219 187.998997 
L 136.481736 183.087649 
L 136.703252 184.315486 
L 136.924769 175.720627 
L 137.146285 183.087649 
L 137.367802 179.404138 
L 137.810835 183.087649 
L 138.032351 184.315486 
L 138.475384 181.859812 
L 138.696901 184.315486 
L 138.918417 181.859812 
L 139.139934 181.859812 
L 139.36145 180.631975 
L 139.582966 184.315486 
L 140.025999 181.859812 
L 140.247516 181.859812 
L 140.469032 185.543323 
L 140.690549 185.543323 
L 140.912065 186.77116 
L 141.133582 186.77116 
L 141.355098 185.543323 
L 141.576615 183.087649 
L 141.798131 183.087649 
L 142.019648 181.859812 
L 142.241164 181.859812 
L 142.462681 180.631975 
L 142.684197 180.631975 
L 142.905714 183.087649 
L 143.12723 181.859812 
L 143.348747 183.087649 
L 143.570263 180.631975 
L 143.791779 181.859812 
L 144.234812 181.859812 
L 144.456329 179.404138 
L 144.677845 181.859812 
L 144.899362 180.631975 
L 145.342395 183.087649 
L 145.563911 183.087649 
L 145.785428 180.631975 
L 146.006944 180.631975 
L 146.228461 183.087649 
L 146.449977 181.859812 
L 146.671494 183.087649 
L 146.89301 180.631975 
L 147.114527 181.859812 
L 147.336043 172.037116 
L 147.55756 181.859812 
L 147.779076 181.859812 
L 148.000593 185.543323 
L 148.222109 184.315486 
L 148.443625 180.631975 
L 148.665142 183.087649 
L 148.886658 183.087649 
L 149.108175 178.176301 
L 149.329691 183.087649 
L 149.551208 183.087649 
L 149.772724 185.543323 
L 150.215757 185.543323 
L 150.437274 184.315486 
L 150.65879 187.998997 
L 151.101823 181.859812 
L 151.32334 185.543323 
L 151.544856 181.859812 
L 151.766373 183.087649 
L 151.987889 185.543323 
L 152.209406 181.859812 
L 152.430922 181.859812 
L 152.652438 183.087649 
L 152.873955 183.087649 
L 153.316988 180.631975 
L 153.538504 187.998997 
L 153.760021 183.087649 
L 154.203054 186.77116 
L 154.42457 184.315486 
L 154.646087 179.404138 
L 154.867603 178.176301 
L 155.310636 172.037116 
L 155.532153 179.404138 
L 155.753669 176.948464 
L 155.975186 178.176301 
L 156.196702 175.720627 
L 156.418219 175.720627 
L 156.639735 184.315486 
L 156.861252 184.315486 
L 157.304284 174.49279 
L 157.525801 173.264953 
L 157.968834 175.720627 
L 158.411867 172.037116 
L 158.633383 176.948464 
L 158.8549 172.037116 
L 159.297933 175.720627 
L 159.519449 174.49279 
L 159.740966 174.49279 
L 159.962482 168.353605 
L 160.183999 168.353605 
L 160.848548 178.176301 
L 161.070065 173.264953 
L 161.291581 181.859812 
L 161.513097 178.176301 
L 161.734614 178.176301 
L 161.95613 180.631975 
L 162.177647 176.948464 
L 162.399163 180.631975 
L 162.62068 181.859812 
L 162.842196 169.581442 
L 163.285229 179.404138 
L 163.506746 174.49279 
L 163.728262 183.087649 
L 163.949779 181.859812 
L 164.171295 186.77116 
L 164.614328 189.226834 
L 164.835845 185.543323 
L 165.057361 186.77116 
L 165.278878 186.77116 
L 165.500394 189.226834 
L 165.72191 181.859812 
L 165.943427 185.543323 
L 166.164943 186.77116 
L 166.38646 185.543323 
L 166.607976 183.087649 
L 166.829493 194.138182 
L 167.051009 189.226834 
L 167.272526 189.226834 
L 167.494042 180.631975 
L 167.715559 186.77116 
L 167.937075 187.998997 
L 168.158592 185.543323 
L 168.380108 185.543323 
L 168.601625 187.998997 
L 168.823141 185.543323 
L 169.044658 185.543323 
L 169.266174 184.315486 
L 169.487691 184.315486 
L 169.930724 187.998997 
L 170.15224 183.087649 
L 170.373756 185.543323 
L 170.595273 181.859812 
L 170.816789 183.087649 
L 171.259822 180.631975 
L 172.145888 158.530909 
L 172.367405 170.809279 
L 172.588921 162.21442 
L 172.810438 172.037116 
L 173.253471 157.303072 
L 173.474987 165.897931 
L 173.696504 163.442257 
L 173.91802 173.264953 
L 174.139537 152.391724 
L 174.361053 169.581442 
L 174.582569 176.948464 
L 175.247119 98.366897 
L 175.468635 92.227712 
L 175.690152 119.240125 
L 175.911668 110.645266 
L 176.133185 147.480376 
L 176.354701 149.93605 
L 176.797734 130.290658 
L 177.019251 131.518495 
L 177.240767 137.65768 
L 177.462284 137.65768 
L 177.905317 149.93605 
L 178.126833 88.544201 
L 178.34835 78.721505 
L 178.569866 93.455549 
L 178.791383 81.177179 
L 179.012899 98.366897 
L 179.234415 104.506082 
L 179.455932 98.366897 
L 179.898965 98.366897 
L 180.120481 99.594734 
L 180.341998 90.999875 
L 180.563514 95.911223 
L 180.785031 106.961755 
L 181.006547 124.151473 
L 181.228064 120.467962 
L 181.44958 124.151473 
L 181.671097 122.923636 
L 181.892613 136.429843 
L 182.11413 135.202006 
L 182.335646 141.341191 
L 182.557163 137.65768 
L 182.778679 138.885517 
L 183.000196 142.569028 
L 183.221712 138.885517 
L 183.443228 140.113354 
L 183.664745 142.569028 
L 183.886261 142.569028 
L 184.107778 146.252539 
L 184.772327 138.885517 
L 184.993844 145.024702 
L 185.21536 146.252539 
L 185.436877 146.252539 
L 185.658393 141.341191 
L 185.87991 149.93605 
L 186.101426 153.619561 
L 186.322943 151.163887 
L 186.765976 153.619561 
L 186.987492 153.619561 
L 187.209009 156.075235 
L 187.430525 153.619561 
L 187.652041 153.619561 
L 187.873558 148.708213 
L 188.095074 149.93605 
L 188.316591 145.024702 
L 188.538107 148.708213 
L 188.759624 146.252539 
L 188.98114 152.391724 
L 189.424173 142.569028 
L 189.867206 152.391724 
L 190.088723 148.708213 
L 190.310239 152.391724 
L 190.753272 148.708213 
L 190.974789 154.847398 
L 191.196305 152.391724 
L 191.639338 167.125768 
L 191.860855 168.353605 
L 192.082371 163.442257 
L 192.303887 169.581442 
L 192.525404 168.353605 
L 192.74692 136.429843 
L 192.968437 129.062821 
L 193.189953 132.746332 
L 193.41147 129.062821 
L 193.632986 154.847398 
L 193.854503 147.480376 
L 194.076019 157.303072 
L 194.297536 151.163887 
L 194.740569 153.619561 
L 194.962085 153.619561 
L 195.183602 149.93605 
L 195.405118 156.075235 
L 195.626635 153.619561 
L 195.848151 145.024702 
L 196.069668 145.024702 
L 196.5127 154.847398 
L 196.734217 146.252539 
L 196.955733 148.708213 
L 197.17725 153.619561 
L 197.620283 151.163887 
L 197.841799 156.075235 
L 198.063316 148.708213 
L 198.284832 158.530909 
L 198.506349 156.075235 
L 198.727865 148.708213 
L 198.949382 147.480376 
L 199.170898 153.619561 
L 199.392415 153.619561 
L 199.613931 157.303072 
L 199.835448 143.796865 
L 200.056964 156.075235 
L 200.278481 160.986583 
L 200.499997 162.21442 
L 200.721514 153.619561 
L 200.94303 154.847398 
L 201.164546 154.847398 
L 201.386063 160.986583 
L 201.829096 151.163887 
L 202.050612 151.163887 
L 202.272129 156.075235 
L 202.493645 153.619561 
L 202.715162 164.670094 
L 202.936678 158.530909 
L 203.379711 162.21442 
L 203.601228 163.442257 
L 204.044261 159.758746 
L 204.265777 159.758746 
L 204.487294 157.303072 
L 204.70881 158.530909 
L 205.151843 156.075235 
L 205.373359 158.530909 
L 205.594876 164.670094 
L 205.816392 159.758746 
L 206.037909 158.530909 
L 206.259425 160.986583 
L 206.480942 158.530909 
L 206.702458 160.986583 
L 207.145491 149.93605 
L 207.810041 165.897931 
L 208.031557 157.303072 
L 208.253074 165.897931 
L 208.917623 156.075235 
L 209.13914 162.21442 
L 209.360656 156.075235 
L 209.582173 154.847398 
L 209.803689 146.252539 
L 210.246722 151.163887 
L 210.468238 149.93605 
L 210.689755 154.847398 
L 210.911271 148.708213 
L 211.132788 149.93605 
L 211.575821 138.885517 
L 223.53771 105.733918 
L 223.759227 152.391724 
L 223.980743 152.391724 
L 224.20226 131.518495 
L 224.423776 148.708213 
L 224.645293 135.202006 
L 224.866809 132.746332 
L 225.088326 135.202006 
L 225.309842 129.062821 
L 225.531359 116.784451 
L 225.752875 120.467962 
L 225.974392 127.834984 
L 226.195908 115.556614 
L 226.417425 118.012288 
L 226.860458 129.062821 
L 227.081974 122.923636 
L 227.30349 124.151473 
L 227.525007 124.151473 
L 227.746523 120.467962 
L 227.96804 114.328777 
L 228.189556 121.695799 
L 228.411073 116.784451 
L 228.632589 120.467962 
L 228.854106 141.341191 
L 229.075622 141.341191 
L 229.297139 142.569028 
L 229.518655 130.290658 
L 229.740172 140.113354 
L 229.961688 130.290658 
L 230.183205 126.607147 
L 230.404721 127.834984 
L 230.626238 125.37931 
L 230.847754 125.37931 
L 231.069271 121.695799 
L 231.290787 136.429843 
L 231.512304 138.885517 
L 231.73382 145.024702 
L 231.955336 146.252539 
L 232.176853 152.391724 
L 232.398369 153.619561 
L 232.619886 148.708213 
L 232.841402 131.518495 
L 233.284435 151.163887 
L 233.505952 142.569028 
L 233.727468 140.113354 
L 233.948985 151.163887 
L 234.170501 149.93605 
L 234.392018 149.93605 
L 234.613534 143.796865 
L 234.835051 141.341191 
L 235.278084 148.708213 
L 235.4996 136.429843 
L 235.721117 156.075235 
L 235.942633 149.93605 
L 236.164149 158.530909 
L 236.385666 156.075235 
L 236.607182 156.075235 
L 237.050215 152.391724 
L 237.271732 151.163887 
L 237.714765 151.163887 
L 237.936281 159.758746 
L 238.157798 157.303072 
L 238.379314 140.113354 
L 238.600831 149.93605 
L 238.822347 147.480376 
L 239.043864 147.480376 
L 239.26538 153.619561 
L 239.486897 142.569028 
L 239.708413 160.986583 
L 239.92993 160.986583 
L 240.372962 135.202006 
L 240.594479 133.974169 
L 240.815995 140.113354 
L 241.037512 122.923636 
L 241.259028 141.341191 
L 241.480545 133.974169 
L 241.702061 143.796865 
L 241.923578 135.202006 
L 242.145094 147.480376 
L 242.366611 147.480376 
L 242.809644 140.113354 
L 243.03116 143.796865 
L 243.252677 143.796865 
L 243.474193 142.569028 
L 243.69571 143.796865 
L 243.917226 146.252539 
L 244.138743 153.619561 
L 244.360259 149.93605 
L 244.581776 135.202006 
L 244.803292 140.113354 
L 245.246325 133.974169 
L 245.467841 138.885517 
L 245.689358 135.202006 
L 245.910874 145.024702 
L 246.353907 132.746332 
L 246.575424 140.113354 
L 246.79694 140.113354 
L 247.018457 148.708213 
L 247.239973 131.518495 
L 247.46149 138.885517 
L 247.683006 140.113354 
L 247.904523 136.429843 
L 248.126039 136.429843 
L 248.569072 148.708213 
L 248.790589 146.252539 
L 249.012105 147.480376 
L 249.233621 147.480376 
L 249.455138 137.65768 
L 249.676654 141.341191 
L 249.898171 148.708213 
L 250.119687 142.569028 
L 250.341204 143.796865 
L 250.56272 146.252539 
L 250.784237 143.796865 
L 251.22727 129.062821 
L 251.448786 136.429843 
L 251.670303 132.746332 
L 251.891819 136.429843 
L 252.113336 130.290658 
L 252.334852 130.290658 
L 252.556369 121.695799 
L 252.777885 156.075235 
L 252.999402 157.303072 
L 253.220918 149.93605 
L 253.442435 157.303072 
L 253.663951 158.530909 
L 253.885467 153.619561 
L 254.106984 157.303072 
L 254.3285 152.391724 
L 254.550017 152.391724 
L 254.771533 151.163887 
L 254.99305 158.530909 
L 255.436083 145.024702 
L 255.879116 148.708213 
L 256.100632 158.530909 
L 256.322149 149.93605 
L 256.543665 151.163887 
L 256.765182 148.708213 
L 256.986698 156.075235 
L 257.208215 153.619561 
L 257.429731 153.619561 
L 257.651248 152.391724 
L 257.872764 157.303072 
L 258.09428 151.163887 
L 258.315797 162.21442 
L 258.537313 167.125768 
L 258.75883 158.530909 
L 259.201863 165.897931 
L 259.423379 158.530909 
L 259.644896 138.885517 
L 259.866412 154.847398 
L 260.087929 154.847398 
L 260.309445 153.619561 
L 260.530962 160.986583 
L 260.752478 157.303072 
L 260.973995 157.303072 
L 261.417028 168.353605 
L 261.638544 162.21442 
L 261.860061 152.391724 
L 262.081577 156.075235 
L 262.303094 165.897931 
L 262.52461 164.670094 
L 262.746126 165.897931 
L 262.967643 164.670094 
L 263.189159 159.758746 
L 263.410676 170.809279 
L 263.632192 169.581442 
L 263.853709 158.530909 
L 264.075225 163.442257 
L 264.296742 173.264953 
L 264.518258 164.670094 
L 264.739775 165.897931 
L 264.961291 154.847398 
L 265.182808 152.391724 
L 265.404324 165.897931 
L 265.625841 160.986583 
L 265.847357 164.670094 
L 266.068874 160.986583 
L 266.29039 168.353605 
L 266.511907 168.353605 
L 266.954939 140.113354 
L 267.176456 146.252539 
L 267.397972 135.202006 
L 267.619489 135.202006 
L 267.841005 142.569028 
L 268.062522 143.796865 
L 268.284038 137.65768 
L 268.727071 149.93605 
L 269.170104 142.569028 
L 269.391621 146.252539 
L 269.613137 145.024702 
L 269.834654 151.163887 
L 270.05617 153.619561 
L 270.277687 147.480376 
L 270.499203 148.708213 
L 270.72072 146.252539 
L 271.163752 153.619561 
L 271.385269 147.480376 
L 271.606785 129.062821 
L 271.828302 130.290658 
L 272.049818 124.151473 
L 272.271335 125.37931 
L 272.492851 118.012288 
L 272.714368 118.012288 
L 272.935884 111.873103 
L 273.157401 110.645266 
L 273.378917 115.556614 
L 273.600434 105.733918 
L 274.043467 114.328777 
L 274.264983 103.278245 
L 274.708016 126.607147 
L 274.929533 115.556614 
L 275.151049 97.13906 
L 275.372566 133.974169 
L 275.594082 132.746332 
L 276.037115 147.480376 
L 276.258631 146.252539 
L 276.480148 141.341191 
L 276.701664 142.569028 
L 276.923181 122.923636 
L 277.144697 116.784451 
L 277.366214 131.518495 
L 277.58773 130.290658 
L 277.809247 116.784451 
L 278.030763 119.240125 
L 278.25228 116.784451 
L 278.473796 130.290658 
L 278.695313 118.012288 
L 278.916829 119.240125 
L 279.138346 115.556614 
L 279.359862 114.328777 
L 279.581379 119.240125 
L 279.802895 114.328777 
L 280.024411 115.556614 
L 280.245928 115.556614 
L 280.467444 114.328777 
L 280.688961 110.645266 
L 281.131994 95.911223 
L 281.35351 94.683386 
L 281.575027 95.911223 
L 281.796543 109.417429 
L 282.01806 102.050408 
L 282.239576 105.733918 
L 282.461093 111.873103 
L 282.682609 109.417429 
L 282.904126 113.10094 
L 283.568675 132.746332 
L 283.790192 125.37931 
L 284.011708 129.062821 
L 284.233225 130.290658 
L 284.454741 125.37931 
L 284.676257 132.746332 
L 284.897774 133.974169 
L 285.562323 133.974169 
L 285.78384 148.708213 
L 286.005356 136.429843 
L 286.448389 125.37931 
L 286.891422 142.569028 
L 287.112939 133.974169 
L 287.555972 146.252539 
L 287.777488 145.024702 
L 287.999005 136.429843 
L 288.220521 146.252539 
L 288.442038 135.202006 
L 288.663554 136.429843 
L 288.88507 133.974169 
L 289.328103 133.974169 
L 289.54962 136.429843 
L 289.771136 136.429843 
L 289.992653 138.885517 
L 290.214169 135.202006 
L 290.435686 143.796865 
L 290.657202 135.202006 
L 290.878719 148.708213 
L 291.100235 135.202006 
L 291.321752 137.65768 
L 291.543268 135.202006 
L 291.764785 141.341191 
L 291.986301 133.974169 
L 292.207818 140.113354 
L 292.429334 149.93605 
L 292.650851 147.480376 
L 293.093884 133.974169 
L 293.3154 137.65768 
L 293.536916 137.65768 
L 293.758433 147.480376 
L 293.979949 137.65768 
L 294.201466 138.885517 
L 294.422982 148.708213 
L 294.644499 142.569028 
L 294.866015 151.163887 
L 295.087532 135.202006 
L 295.309048 145.024702 
L 295.530565 145.024702 
L 295.752081 142.569028 
L 295.973598 136.429843 
L 296.416631 142.569028 
L 296.638147 136.429843 
L 296.859664 136.429843 
L 297.08118 143.796865 
L 297.302697 137.65768 
L 297.524213 136.429843 
L 297.745729 137.65768 
L 297.967246 137.65768 
L 298.188762 142.569028 
L 298.410279 136.429843 
L 298.631795 143.796865 
L 298.853312 140.113354 
L 299.074828 151.163887 
L 299.296345 138.885517 
L 299.739378 136.429843 
L 299.960894 137.65768 
L 300.182411 141.341191 
L 300.84696 132.746332 
L 301.068477 140.113354 
L 301.289993 141.341191 
L 301.51151 145.024702 
L 301.733026 136.429843 
L 301.954542 148.708213 
L 302.176059 148.708213 
L 302.397575 146.252539 
L 302.840608 133.974169 
L 303.062125 127.834984 
L 303.283641 142.569028 
L 303.505158 146.252539 
L 303.726674 143.796865 
L 303.948191 138.885517 
L 304.391224 138.885517 
L 304.61274 143.796865 
L 304.834257 142.569028 
L 305.055773 154.847398 
L 305.27729 153.619561 
L 305.720323 159.758746 
L 306.163356 157.303072 
L 306.384872 159.758746 
L 306.606388 152.391724 
L 306.827905 159.758746 
L 307.049421 156.075235 
L 307.270938 145.024702 
L 307.492454 163.442257 
L 307.713971 146.252539 
L 307.935487 154.847398 
L 308.157004 148.708213 
L 308.37852 160.986583 
L 309.04307 140.113354 
L 309.264586 153.619561 
L 309.486103 147.480376 
L 309.707619 135.202006 
L 310.150652 159.758746 
L 310.593685 145.024702 
L 310.815201 131.518495 
L 311.036718 138.885517 
L 311.258234 137.65768 
L 311.479751 129.062821 
L 311.922784 136.429843 
L 312.1443 137.65768 
L 312.365817 143.796865 
L 312.587333 135.202006 
L 312.80885 147.480376 
L 313.030366 148.708213 
L 313.251883 153.619561 
L 313.473399 143.796865 
L 313.694916 156.075235 
L 313.916432 135.202006 
L 314.137949 133.974169 
L 314.359465 136.429843 
L 314.580982 141.341191 
L 314.802498 140.113354 
L 315.024015 143.796865 
L 315.245531 152.391724 
L 315.467047 142.569028 
L 315.688564 142.569028 
L 315.91008 138.885517 
L 316.131597 151.163887 
L 316.353113 136.429843 
L 317.017663 145.024702 
L 317.239179 133.974169 
L 317.460696 142.569028 
L 317.682212 146.252539 
L 317.903729 141.341191 
L 318.125245 146.252539 
L 318.346762 142.569028 
L 318.568278 154.847398 
L 318.789795 153.619561 
L 319.232828 145.024702 
L 319.454344 147.480376 
L 319.67586 145.024702 
L 319.897377 149.93605 
L 320.118893 135.202006 
L 320.34041 142.569028 
L 320.783443 140.113354 
L 321.004959 140.113354 
L 321.226476 151.163887 
L 321.447992 151.163887 
L 321.669509 142.569028 
L 321.891025 147.480376 
L 322.112542 148.708213 
L 322.334058 152.391724 
L 322.777091 149.93605 
L 322.998608 151.163887 
L 323.441641 156.075235 
L 323.663157 137.65768 
L 323.884673 145.024702 
L 324.327706 140.113354 
L 324.549223 152.391724 
L 324.770739 149.93605 
L 324.992256 136.429843 
L 325.213772 140.113354 
L 325.435289 138.885517 
L 325.656805 153.619561 
L 325.878322 133.974169 
L 326.099838 141.341191 
L 326.321355 153.619561 
L 326.542871 119.240125 
L 326.764388 113.10094 
L 326.985904 111.873103 
L 327.207421 84.86069 
L 327.428937 131.518495 
L 327.650454 120.467962 
L 327.87197 132.746332 
L 328.093487 130.290658 
L 328.315003 130.290658 
L 328.979552 95.911223 
L 329.422585 38.202884 
L 329.644102 27.152351 
L 330.087135 23.46884 
L 330.308651 22.241003 
L 330.530168 23.46884 
L 331.194717 23.46884 
L 331.416234 21.013166 
L 331.63775 16.101818 
L 332.3023 77.493668 
L 332.523816 79.949342 
L 332.745332 87.316364 
L 332.966849 84.86069 
L 333.409882 89.772038 
L 333.631398 87.316364 
L 333.852915 95.911223 
L 334.074431 98.366897 
L 334.295948 108.189592 
L 334.738981 93.455549 
L 334.960497 97.13906 
L 335.182014 97.13906 
L 335.40353 102.050408 
L 335.625047 89.772038 
L 335.846563 92.227712 
L 336.06808 105.733918 
L 336.732629 122.923636 
L 336.954146 121.695799 
L 337.175662 127.834984 
L 337.397178 125.37931 
L 337.618695 126.607147 
L 337.840211 126.607147 
L 338.061728 127.834984 
L 338.283244 130.290658 
L 338.504761 130.290658 
L 338.726277 121.695799 
L 338.947794 126.607147 
L 339.16931 124.151473 
L 339.612343 136.429843 
L 339.83386 133.974169 
L 340.055376 136.429843 
L 340.276893 136.429843 
L 340.498409 137.65768 
L 340.719926 133.974169 
L 341.162959 137.65768 
L 341.827508 133.974169 
L 342.049024 138.885517 
L 342.270541 137.65768 
L 342.713574 137.65768 
L 342.93509 133.974169 
L 343.156607 133.974169 
L 343.378123 135.202006 
L 343.59964 133.974169 
L 343.821156 138.885517 
L 344.042673 138.885517 
L 344.264189 135.202006 
L 344.485706 140.113354 
L 344.707222 136.429843 
L 344.928739 136.429843 
L 345.150255 133.974169 
L 345.371772 133.974169 
L 345.593288 138.885517 
L 345.814805 138.885517 
L 346.036321 137.65768 
L 346.257837 133.974169 
L 346.479354 135.202006 
L 346.70087 138.885517 
L 346.922387 138.885517 
L 347.143903 133.974169 
L 347.36542 133.974169 
L 347.586936 138.885517 
L 347.808453 137.65768 
L 348.029969 142.569028 
L 348.473002 138.885517 
L 348.694519 137.65768 
L 349.137552 133.974169 
L 349.359068 143.796865 
L 349.580585 135.202006 
L 349.802101 138.885517 
L 350.245134 138.885517 
L 350.46665 135.202006 
L 350.688167 137.65768 
L 350.909683 135.202006 
L 351.1312 138.885517 
L 351.352716 135.202006 
L 351.574233 133.974169 
L 351.795749 137.65768 
L 352.238782 133.974169 
L 352.681815 137.65768 
L 352.903332 138.885517 
L 353.124848 136.429843 
L 353.346365 140.113354 
L 353.567881 137.65768 
L 353.789398 138.885517 
L 354.010914 137.65768 
L 354.232431 142.569028 
L 354.453947 137.65768 
L 354.675463 136.429843 
L 354.89698 149.93605 
L 355.340013 138.885517 
L 355.561529 136.429843 
L 355.561529 136.429843 
" clip-path="url(#pe772db8e71)" style="fill: none; stroke: #1f77b4; stroke-width: 1.5; stroke-linecap: square"/>
   </g>
   <g id="patch_3">
    <path d="M 35.979711 203.04 
L 35.979711 7.2 
" style="fill: none; stroke: #000000; stroke-width: 0.8; stroke-linejoin: miter; stroke-linecap: square"/>
   </g>
   <g id="patch_4">
    <path d="M 370.779711 203.04 
L 370.779711 7.2 
" style="fill: none; stroke: #000000; stroke-width: 0.8; stroke-linejoin: miter; stroke-linecap: square"/>
   </g>
   <g id="patch_5">
    <path d="M 35.979711 203.04 
L 370.779711 203.04 
" style="fill: none; stroke: #000000; stroke-width: 0.8; stroke-linejoin: miter; stroke-linecap: square"/>
   </g>
   <g id="patch_6">
    <path d="M 35.979711 7.2 
L 370.779711 7.2 
" style="fill: none; stroke: #000000; stroke-width: 0.8; stroke-linejoin: miter; stroke-linecap: square"/>
   </g>
   <g id="legend_1">
    <g id="patch_7">
     <path d="M 42.979711 29.878125 
L 102.295336 29.878125 
Q 104.295336 29.878125 104.295336 27.878125 
L 104.295336 14.2 
Q 104.295336 12.2 102.295336 12.2 
L 42.979711 12.2 
Q 40.979711 12.2 40.979711 14.2 
L 40.979711 27.878125 
Q 40.979711 29.878125 42.979711 29.878125 
z
" style="fill: #ffffff; opacity: 0.8; stroke: #cccccc; stroke-linejoin: miter"/>
    </g>
    <g id="line2d_19">
     <path d="M 44.979711 20.298437 
L 54.979711 20.298437 
L 64.979711 20.298437 
" style="fill: none; stroke: #1f77b4; stroke-width: 1.5; stroke-linecap: square"/>
    </g>
    <g id="text_19">
     <!-- value -->
     <g transform="translate(72.979711 23.798437)scale(0.1 -0.1)">
      <defs>
       <path id="DejaVuSans-76" d="M 191 3500 
L 800 3500 
L 1894 563 
L 2988 3500 
L 3597 3500 
L 2284 0 
L 1503 0 
L 191 3500 
z
" transform="scale(0.015625)"/>
       <path id="DejaVuSans-61" d="M 2194 1759 
Q 1497 1759 1228 1600 
Q 959 1441 959 1056 
Q 959 750 1161 570 
Q 1363 391 1709 391 
Q 2188 391 2477 730 
Q 2766 1069 2766 1631 
L 2766 1759 
L 2194 1759 
z
M 3341 1997 
L 3341 0 
L 2766 0 
L 2766 531 
Q 2569 213 2275 61 
Q 1981 -91 1556 -91 
Q 1019 -91 701 211 
Q 384 513 384 1019 
Q 384 1609 779 1909 
Q 1175 2209 1959 2209 
L 2766 2209 
L 2766 2266 
Q 2766 2663 2505 2880 
Q 2244 3097 1772 3097 
Q 1472 3097 1187 3025 
Q 903 2953 641 2809 
L 641 3341 
Q 956 3463 1253 3523 
Q 1550 3584 1831 3584 
Q 2591 3584 2966 3190 
Q 3341 2797 3341 1997 
z
" transform="scale(0.015625)"/>
       <path id="DejaVuSans-6c" d="M 603 4863 
L 1178 4863 
L 1178 0 
L 603 0 
L 603 4863 
z
" transform="scale(0.015625)"/>
       <path id="DejaVuSans-75" d="M 544 1381 
L 544 3500 
L 1119 3500 
L 1119 1403 
Q 1119 906 1312 657 
Q 1506 409 1894 409 
Q 2359 409 2629 706 
Q 2900 1003 2900 1516 
L 2900 3500 
L 3475 3500 
L 3475 0 
L 2900 0 
L 2900 538 
Q 2691 219 2414 64 
Q 2138 -91 1772 -91 
Q 1169 -91 856 284 
Q 544 659 544 1381 
z
M 1991 3584 
L 1991 3584 
z
" transform="scale(0.015625)"/>
      </defs>
      <use xlink:href="#DejaVuSans-76"/>
      <use xlink:href="#DejaVuSans-61" x="59.179688"/>
      <use xlink:href="#DejaVuSans-6c" x="120.458984"/>
      <use xlink:href="#DejaVuSans-75" x="148.242188"/>
      <use xlink:href="#DejaVuSans-65" x="211.621094"/>
     </g>
    </g>
   </g>
  </g>
 </g>
 <defs>
  <clipPath id="pe772db8e71">
   <rect x="35.979711" y="7.2" width="334.8" height="195.84"/>
  </clipPath>
 </defs>
</svg>
